<?xml version="1.0" encoding="UTF-8" standalone="no"?>
<svg width="77px" height="78px" viewBox="0 0 77 78" version="1.1" xmlns="http://www.w3.org/2000/svg" xmlns:xlink="http://www.w3.org/1999/xlink" xmlns:sketch="http://www.bohemiancoding.com/sketch/ns">
    <!-- Generator: bin/sketchtool 1.4 (305) - http://www.bohemiancoding.com/sketch -->
    <title>callout</title>
    <desc>Created with bin/sketchtool.</desc>
    <defs>
        <filter x="-50%" y="-50%" width="200%" height="200%" filterUnits="objectBoundingBox" id="filter-1">
            <feOffset dx="0" dy="2" in="SourceAlpha" result="shadowOffsetOuter1"></feOffset>
            <feGaussianBlur stdDeviation="1" in="shadowOffsetOuter1" result="shadowBlurOuter1"></feGaussianBlur>
            <feColorMatrix values="0 0 0 0 0   0 0 0 0 0   0 0 0 0 0  0 0 0 0.035 0" in="shadowBlurOuter1" type="matrix" result="shadowMatrixOuter1"></feColorMatrix>
            <feOffset dx="0" dy="3" in="SourceAlpha" result="shadowOffsetOuter2"></feOffset>
            <feGaussianBlur stdDeviation="1.5" in="shadowOffsetOuter2" result="shadowBlurOuter2"></feGaussianBlur>
            <feColorMatrix values="0 0 0 0 0   0 0 0 0 0   0 0 0 0 0  0 0 0 0.07 0" in="shadowBlurOuter2" type="matrix" result="shadowMatrixOuter2"></feColorMatrix>
            <feMerge>
                <feMergeNode in="shadowMatrixOuter1"></feMergeNode>
                <feMergeNode in="shadowMatrixOuter2"></feMergeNode>
                <feMergeNode in="SourceGraphic"></feMergeNode>
            </feMerge>
        </filter>
    </defs>
    <g id="index" stroke="none" stroke-width="1" fill="none" fill-rule="evenodd" sketch:type="MSPage">
        <g id="lg/main" sketch:type="MSArtboardGroup" transform="translate(-983.000000, -645.000000)">
            <g id="list" sketch:type="MSLayerGroup" transform="translate(0.000000, 320.000000)">
                <g id="about" transform="translate(352.000000, 325.000000)" sketch:type="MSShapeGroup">
                    <g id="callout" transform="translate(633.000000, 0.000000)">
                        <path d="M65.5453915,0.639953613 C69.5544558,0.639953613 72.7684236,3.89010202 72.7684236,7.90294624 L72.8081548,73.2699509 L58.2823918,58.7439656 L7.44115723,58.7439656 C3.43398497,58.7439656 0.178157505,55.4901515 0.178157505,51.480973 L0.178157505,7.90294624 C0.178157505,3.89010202 3.43398497,0.639953613 7.44115723,0.639953613 L65.5453915,0.639953613 Z" id="Fill-8" stroke="#FFFFFF" stroke-width="4" fill="#1BBD26" filter="url(#filter-1)" transform="translate(36.493156, 36.954952) scale(-1, 1) translate(-36.493156, -36.954952) "></path>
                        <path d="M23.7553369,16.1617641 L53.9383327,16.1617641 L53.9383327,36.2837632 L23.7553369,36.2837632 L23.7553369,16.1617641 L23.7553369,16.1617641 Z M38.8468348,21.1922821 C41.6250076,21.1922821 43.8773528,23.4445881 43.8773528,26.2227664 C43.8773528,29.0011074 41.6250076,31.253262 38.8468348,31.253262 C36.0684938,31.253262 33.8163168,29.0011074 33.8163168,26.2227664 C33.8163168,23.4445881 36.0684938,21.1922821 38.8468348,21.1922821 L38.8468348,21.1922821 Z M30.4626382,19.5154316 C30.4626382,21.3676252 28.9611868,22.869099 27.1090156,22.869099 L27.1090156,29.5764283 C28.9611307,29.5764283 30.4626382,31.0778684 30.4626382,32.9300957 L47.2309754,32.9300957 C47.2309754,31.0778684 48.7324267,29.5764283 50.584654,29.5764283 L50.584654,22.869099 C48.7324267,22.869099 47.2309754,21.3676252 47.2309754,19.5154484 L30.4626382,19.5154316 L30.4626382,19.5154316 Z M17.0479796,22.869099 L20.4016583,22.869099 L20.4016583,39.6374306 L47.2309754,39.6374306 L47.2309754,42.9911093 L17.0479796,42.9911093 L17.0479796,22.869099 L17.0479796,22.869099 Z" id="Fill-10" fill="#FFFFFF"></path>
                    </g>
                </g>
            </g>
        </g>
    </g>
</svg>