<?xml version="1.0" encoding="UTF-8" standalone="no"?>
<svg width="161px" height="197px" viewBox="0 0 161 197" version="1.1" xmlns="http://www.w3.org/2000/svg" xmlns:xlink="http://www.w3.org/1999/xlink" xmlns:sketch="http://www.bohemiancoding.com/sketch/ns">
    <!-- Generator: bin/sketchtool 1.4 (305) - http://www.bohemiancoding.com/sketch -->
    <title>timeline-1</title>
    <desc>Created with bin/sketchtool.</desc>
    <defs>
        <filter x="-50%" y="-50%" width="200%" height="200%" filterUnits="objectBoundingBox" id="filter-1">
            <feOffset dx="0" dy="3" in="SourceAlpha" result="shadowOffsetOuter1"></feOffset>
            <feGaussianBlur stdDeviation="1.5" in="shadowOffsetOuter1" result="shadowBlurOuter1"></feGaussianBlur>
            <feColorMatrix values="0 0 0 0 0   0 0 0 0 0   0 0 0 0 0  0 0 0 0.035 0" in="shadowBlurOuter1" type="matrix" result="shadowMatrixOuter1"></feColorMatrix>
            <feOffset dx="0" dy="2" in="SourceAlpha" result="shadowOffsetOuter2"></feOffset>
            <feGaussianBlur stdDeviation="1" in="shadowOffsetOuter2" result="shadowBlurOuter2"></feGaussianBlur>
            <feColorMatrix values="0 0 0 0 0   0 0 0 0 0   0 0 0 0 0  0 0 0 0.07 0" in="shadowBlurOuter2" type="matrix" result="shadowMatrixOuter2"></feColorMatrix>
            <feMerge>
                <feMergeNode in="shadowMatrixOuter1"></feMergeNode>
                <feMergeNode in="shadowMatrixOuter2"></feMergeNode>
                <feMergeNode in="SourceGraphic"></feMergeNode>
            </feMerge>
        </filter>
        <rect id="path-2" x="10" y="10" width="24" height="24" rx="40"></rect>
        <filter x="-50%" y="-50%" width="200%" height="200%" filterUnits="objectBoundingBox" id="filter-3">
            <feOffset dx="0" dy="3" in="SourceAlpha" result="shadowOffsetOuter1"></feOffset>
            <feGaussianBlur stdDeviation="1.5" in="shadowOffsetOuter1" result="shadowBlurOuter1"></feGaussianBlur>
            <feColorMatrix values="0 0 0 0 0   0 0 0 0 0   0 0 0 0 0  0 0 0 0.035 0" in="shadowBlurOuter1" type="matrix" result="shadowMatrixOuter1"></feColorMatrix>
            <feOffset dx="0" dy="2" in="SourceAlpha" result="shadowOffsetOuter2"></feOffset>
            <feGaussianBlur stdDeviation="1" in="shadowOffsetOuter2" result="shadowBlurOuter2"></feGaussianBlur>
            <feColorMatrix values="0 0 0 0 0   0 0 0 0 0   0 0 0 0 0  0 0 0 0.07 0" in="shadowBlurOuter2" type="matrix" result="shadowMatrixOuter2"></feColorMatrix>
            <feMerge>
                <feMergeNode in="shadowMatrixOuter1"></feMergeNode>
                <feMergeNode in="shadowMatrixOuter2"></feMergeNode>
                <feMergeNode in="SourceGraphic"></feMergeNode>
            </feMerge>
        </filter>
        <rect id="path-4" x="10" y="10" width="24" height="24" rx="40"></rect>
        <filter x="-50%" y="-50%" width="200%" height="200%" filterUnits="objectBoundingBox" id="filter-5">
            <feOffset dx="0" dy="2" in="SourceAlpha" result="shadowOffsetOuter1"></feOffset>
            <feGaussianBlur stdDeviation="1" in="shadowOffsetOuter1" result="shadowBlurOuter1"></feGaussianBlur>
            <feColorMatrix values="0 0 0 0 0   0 0 0 0 0   0 0 0 0 0  0 0 0 0.035 0" in="shadowBlurOuter1" type="matrix" result="shadowMatrixOuter1"></feColorMatrix>
            <feOffset dx="0" dy="3" in="SourceAlpha" result="shadowOffsetOuter2"></feOffset>
            <feGaussianBlur stdDeviation="1.5" in="shadowOffsetOuter2" result="shadowBlurOuter2"></feGaussianBlur>
            <feColorMatrix values="0 0 0 0 0   0 0 0 0 0   0 0 0 0 0  0 0 0 0.07 0" in="shadowBlurOuter2" type="matrix" result="shadowMatrixOuter2"></feColorMatrix>
            <feMerge>
                <feMergeNode in="shadowMatrixOuter1"></feMergeNode>
                <feMergeNode in="shadowMatrixOuter2"></feMergeNode>
                <feMergeNode in="SourceGraphic"></feMergeNode>
            </feMerge>
        </filter>
    </defs>
    <g id="index" stroke="none" stroke-width="1" fill="none" fill-rule="evenodd" sketch:type="MSPage">
        <g id="lg/main" sketch:type="MSArtboardGroup" transform="translate(-383.000000, -698.000000)">
            <g id="list" sketch:type="MSLayerGroup" transform="translate(0.000000, 320.000000)">
                <g id="about" transform="translate(352.000000, 325.000000)">
                    <g id="img" transform="translate(32.000000, 41.000000)">
                        <g id="timeline-1" transform="translate(0.209991, 1.339996)">
                            <rect id="bounds" sketch:type="MSShapeGroup" x="0" y="0" width="186" height="216"></rect>
                            <g id="Map" transform="translate(28.000000, 13.000000)" sketch:type="MSShapeGroup">
                                <g id="Group" transform="translate(1.196262, 0.458826)" fill="#F2F2ED">
                                    <rect id="Rectangle-path" x="0.416299065" y="0.481495327" width="126.726579" height="190.028561"></rect>
                                </g>
                                <path d="M24.5628411,119.960523 L61.8048598,109.981907 L61.8048598,28.3717383 L24.5628411,18.3931215 L24.5628411,119.960523 L24.5628411,119.960523 Z M128.945047,158.404785 L128.945047,174.342579 L63.8971215,191.772112 L17.3242617,191.772112 L17.3242617,129.293159 L0.340934579,133.843738 L0.340934579,126.450841 L17.3242617,121.900262 L17.3242617,115.498467 L0.340934579,115.498467 L0.340934579,108.065495 L17.3242617,108.065495 L17.3242617,52.5768972 L0.340934579,52.5768972 L0.340934579,45.1439252 L17.3242617,45.1439252 L17.3242617,16.4533832 L0.340934579,11.9028037 L0.340934579,4.50990654 L17.3242617,9.06048598 L17.3242617,1.52403738 L24.5628411,1.52403738 L24.5628411,11.0002243 L44.059514,16.2242991 L69.5207477,1.52403738 L84.3866916,1.52403738 L54.212785,18.9445981 L112.681869,34.6114393 L128.945047,18.3488598 L128.945047,28.4477009 L120.646579,36.7455701 L128.945047,38.9694206 L128.945047,46.3623178 L68.9453458,30.2851589 L68.9453458,108.068486 L128.945047,91.9913271 L128.945047,99.3842243 L24.5628411,127.353421 L24.5628411,186.373981 L128.945047,158.404785 L128.945047,158.404785 Z" id="Shape" fill="#FFFFFF"></path>
                                <path d="M110.111103,113.33443 L31.1309159,134.497495 L41.9983551,175.05615 L120.97914,153.893084 L110.111103,113.33443 L110.111103,113.33443 Z M32.5514766,72.3229907 L32.5514766,103.121944 L53.7498318,103.121944 L53.7498318,72.3229907 L32.5514766,72.3229907 L32.5514766,72.3229907 Z M105.849421,50.6891963 C105.849421,46.4221308 102.385047,42.957757 98.1179813,42.957757 L82.6551028,42.957757 C78.3880374,42.957757 74.9236636,46.4221308 74.9236636,50.6891963 L74.9236636,89.4510654 C74.9236636,93.7181308 78.3880374,97.1819065 82.6551028,97.1819065 L98.1179813,97.1819065 C102.385047,97.1819065 105.849421,93.7181308 105.849421,89.4510654 L105.849421,50.6891963 L105.849421,50.6891963 Z M32.5514766,31.2888224 L32.5514766,62.0871776 L53.7498318,62.0871776 L53.7498318,31.2888224 L32.5514766,31.2888224 L32.5514766,31.2888224 Z M126.771439,0.850542056 L129.776449,12.0654953 L103.292411,19.1617196 L98.3859439,0.850542056 L126.771439,0.850542056 L126.771439,0.850542056 Z" id="Shape" fill-opacity="0.121569" fill="#000000"></path>
                                <g id="Group" transform="translate(1.196262, 0.458826)" stroke="#FFFFFF" stroke-width="6.25">
                                    <rect id="Rectangle-path" x="0.416299065" y="0.481495327" width="126.726579" height="190.028561"></rect>
                                </g>
                            </g>
                            <g id="dot-assignment-active" transform="translate(52.000000, 109.000000)">
                                <rect id="bounds" sketch:type="MSShapeGroup" x="0" y="0" width="44" height="44"></rect>
                                <g id="assignment" filter="url(#filter-1)">
                                    <use stroke="#FFFFFF" stroke-width="4" fill="#4CD764" fill-rule="evenodd" sketch:type="MSShapeGroup" xlink:href="#path-2"></use>
                                    <use stroke-opacity="0.3" stroke="#4CD764" stroke-width="24" fill="none" xlink:href="#path-2"></use>
                                </g>
                            </g>
                            <g id="dot-user-fill" transform="translate(83.000000, 97.000000)">
                                <rect id="bounds" sketch:type="MSShapeGroup" x="0" y="0" width="44" height="44"></rect>
                                <g id="user" filter="url(#filter-3)">
                                    <use stroke="#FFFFFF" stroke-width="4" fill="#0077FF" fill-rule="evenodd" sketch:type="MSShapeGroup" xlink:href="#path-4"></use>
                                    <use stroke="none" fill="none" xlink:href="#path-4"></use>
                                </g>
                            </g>
                            <g id="callout" transform="translate(0.794393, 58.000000)" sketch:type="MSShapeGroup">
                                <path d="M7.59296932,0.769989014 L65.6969445,0.769989014 C69.7060838,0.769989014 72.9199813,4.0201547 72.9199813,8.03300006 L72.9599272,73.3999863 L58.4339617,58.8740208 L7.59296932,58.8740208 C3.5856123,58.8740208 0.329986572,55.6202056 0.329986572,51.6110097 L0.329986572,8.03300006 C0.329986572,4.0201547 3.5856123,0.769989014 7.59296932,0.769989014 L7.59296932,0.769989014 Z" id="Fill-1" stroke="#FFFFFF" stroke-width="4" stroke-linejoin="bevel" fill="#FFC600" filter="url(#filter-5)"></path>
                                <path d="M25.0263687,19.9659478 L29.3833494,19.9659208 L32.2879762,17.061294 L41.0019376,17.061294 L43.9065914,19.9659208 L48.2635451,19.9659478 C49.8676476,19.9659478 51.1681989,21.266391 51.1681989,22.8706016 L51.1681989,40.2984704 C51.1681989,41.902708 49.8676476,43.2030971 48.2635451,43.2030971 L25.0263687,43.2030971 C23.4221581,43.2030971 22.1217149,41.902708 22.1217149,40.2984704 L22.1217149,22.8706016 C22.1217149,21.266391 23.4221581,19.9659478 25.0263687,19.9659478 L25.0263687,19.9659478 Z M36.6449569,24.3229015 C32.634471,24.3229015 29.3833494,27.574023 29.3833494,31.5845089 C29.3833494,35.5949678 32.634471,38.8461435 36.6449569,38.8461435 C40.6554158,38.8461435 43.9065914,35.5949678 43.9065914,31.5845089 C43.9065914,27.574023 40.6554158,24.3229015 36.6449569,24.3229015 L36.6449569,24.3229015 Z M36.6449569,27.2275282 C39.0511782,27.2275282 41.0019376,29.1783147 41.0019376,31.5845089 C41.0019376,33.9908654 39.0511782,35.9414896 36.6449569,35.9414896 C34.2386005,35.9414896 32.2879762,33.9908654 32.2879762,31.5845089 C32.2879762,29.1783147 34.2386005,27.2275282 36.6449569,27.2275282 L36.6449569,27.2275282 Z" id="Fill-3" fill="#FFFFFF"></path>
                            </g>
                        </g>
                    </g>
                </g>
            </g>
        </g>
    </g>
</svg>