<?xml version="1.0" encoding="UTF-8" standalone="no"?>
<svg width="270px" height="134px" viewBox="0 0 270 134" version="1.1" xmlns="http://www.w3.org/2000/svg" xmlns:xlink="http://www.w3.org/1999/xlink" xmlns:sketch="http://www.bohemiancoding.com/sketch/ns">
    <!-- Generator: bin/sketchtool 1.4 (305) - http://www.bohemiancoding.com/sketch -->
    <title>timeline-2</title>
    <desc>Created with bin/sketchtool.</desc>
    <defs>
        <filter x="-50%" y="-50%" width="200%" height="200%" filterUnits="objectBoundingBox" id="filter-1">
            <feOffset dx="0" dy="2" in="SourceAlpha" result="shadowOffsetOuter1"></feOffset>
            <feGaussianBlur stdDeviation="1" in="shadowOffsetOuter1" result="shadowBlurOuter1"></feGaussianBlur>
            <feColorMatrix values="0 0 0 0 0   0 0 0 0 0   0 0 0 0 0  0 0 0 0.035 0" in="shadowBlurOuter1" type="matrix" result="shadowMatrixOuter1"></feColorMatrix>
            <feOffset dx="0" dy="3" in="SourceAlpha" result="shadowOffsetOuter2"></feOffset>
            <feGaussianBlur stdDeviation="1.5" in="shadowOffsetOuter2" result="shadowBlurOuter2"></feGaussianBlur>
            <feColorMatrix values="0 0 0 0 0   0 0 0 0 0   0 0 0 0 0  0 0 0 0.07 0" in="shadowBlurOuter2" type="matrix" result="shadowMatrixOuter2"></feColorMatrix>
            <feMerge>
                <feMergeNode in="shadowMatrixOuter1"></feMergeNode>
                <feMergeNode in="shadowMatrixOuter2"></feMergeNode>
                <feMergeNode in="SourceGraphic"></feMergeNode>
            </feMerge>
        </filter>
    </defs>
    <g id="index" stroke="none" stroke-width="1" fill="none" fill-rule="evenodd" sketch:type="MSPage">
        <g id="lg/main" sketch:type="MSArtboardGroup" transform="translate(-584.000000, -731.000000)">
            <g id="list" sketch:type="MSLayerGroup" transform="translate(0.000000, 320.000000)">
                <g id="about" transform="translate(352.000000, 325.000000)" sketch:type="MSShapeGroup">
                    <g id="img" transform="translate(32.000000, 41.000000)">
                        <g id="timeline-2" transform="translate(186.205607, 16.339996)">
                            <rect id="bounds" x="0" y="0" width="298" height="186"></rect>
                            <path d="M37.061696,29.4816174 C31.6440137,29.4816174 26.4480983,31.6338237 22.6170073,35.4648052 C18.7861901,39.2957593 16.6338742,44.4916748 16.6338742,49.9094666 L16.6338742,137.053768 C16.6338742,142.47156 18.7861901,147.667475 22.6170073,151.49843 C26.4480983,155.329411 31.6440137,157.481617 37.061696,157.481617 L260.645404,157.481617 C266.063086,157.481617 271.259002,155.329411 275.089819,151.49843 C278.92091,147.667475 281.073144,142.47156 281.073144,137.053768 L281.073144,49.9094666 C281.073144,44.4916748 278.92091,39.2957593 275.089819,35.4648052 C271.259002,31.6338237 266.063086,29.4816174 260.645404,29.4816174 L37.061696,29.4816174 L37.061696,29.4816174 Z" id="Fill-1" fill="#FFC600" filter="url(#filter-1)"></path>
                            <path d="M253.206905,93.1592615 C253.206905,87.5356645 257.772565,82.970005 263.396134,82.970005 C269.019704,82.970005 273.585364,87.5356645 273.585364,93.1592615 C273.585364,98.7828584 269.019704,103.348518 263.396134,103.348518 C257.772565,103.348518 253.206905,98.7828584 253.206905,93.1592615 Z M254.472345,93.1852712 C254.472345,88.2883577 258.448269,84.3126528 263.34521,84.3126528 C268.242151,84.3126528 272.217801,88.2883577 272.217801,93.1852712 C272.217801,98.082212 268.242151,102.057917 263.34521,102.057917 C258.448269,102.057917 254.472345,98.082212 254.472345,93.1852712 Z M48.9785163,36.081673 C48.6316292,36.081673 48.2989789,36.219497 48.0536664,36.4647821 C47.8083539,36.7100946 47.6706394,37.0427996 47.6706394,37.3897142 L47.6706394,149.138392 C47.6706394,149.485307 47.8083539,149.818012 48.0536664,150.063297 C48.2989789,150.308609 48.6316292,150.446433 48.9785163,150.446433 L248.180464,150.446433 C248.527625,150.446433 248.860275,150.308609 249.105587,150.063297 C249.3509,149.818012 249.488614,149.485307 249.488614,149.138392 L249.488614,37.3897142 C249.488614,37.0427996 249.3509,36.7100946 249.105587,36.4647821 C248.860275,36.219497 248.527625,36.081673 248.180464,36.081673 L48.9785163,36.081673 Z M31.1342237,113.678774 C31.1342237,112.503738 32.0883688,111.54973 33.2631856,111.54973 C34.4382762,111.54973 35.3924213,112.503738 35.3924213,113.678774 C35.3924213,114.853837 34.4382762,115.807818 33.2631856,115.807818 C32.0883688,115.807818 31.1342237,114.853837 31.1342237,113.678774 Z M33.2262244,82.8977528 C32.6564753,82.8977528 32.1948716,83.3594659 32.1948716,83.9290235 L32.1948716,102.501889 C32.1948716,103.071446 32.6564753,103.533187 33.2262244,103.533187 L33.2278672,103.533187 C33.7973426,103.533187 34.25922,103.071446 34.25922,102.501889 L34.25922,83.9290235 C34.25922,83.3594659 33.7973426,82.8977528 33.2278672,82.8977528 L33.2262244,82.8977528 Z M23.6248144,93.1889125 C23.6248144,92.4570271 24.2189306,91.8628288 24.951035,91.8628288 C25.6828657,91.8628288 26.2769818,92.4570271 26.2769818,93.1889125 C26.2769818,93.9207979 25.6828657,94.5149962 24.951035,94.5149962 C24.2189306,94.5149962 23.6248144,93.9207979 23.6248144,93.1889125 Z" id="Path" fill="#FFFFFF"></path>
                            <path d="M101.634183,128.290281 C103.621871,128.290281 105.23502,126.677078 105.23502,124.689389 C105.23502,122.701701 103.621871,121.088498 101.634183,121.088498 C99.6464949,121.088498 98.0333463,122.701701 98.0333463,124.689389 C98.0333463,126.677078 99.6464949,128.290281 101.634183,128.290281 L101.634183,128.290281 Z M105.23502,106.684877 L99.2336252,106.684877 L99.2336252,112.686436 L109.949893,112.686436 L105.23502,106.684877 L105.23502,106.684877 Z M72.8272152,128.290281 C74.8149034,128.290281 76.428052,126.677078 76.428052,124.689389 C76.428052,122.701701 74.8149034,121.088498 72.8272152,121.088498 C70.839527,121.088498 69.2261047,122.701701 69.2261047,124.689389 C69.2261047,126.677078 70.839527,128.290281 72.8272152,128.290281 L72.8272152,128.290281 Z M106.435299,103.083986 L113.637246,112.686436 L113.637246,124.689389 L108.835857,124.689389 C108.835857,128.667175 105.612023,131.891173 101.634183,131.891173 C97.6563426,131.891173 94.4325096,128.667175 94.4325096,124.689389 L80.0288887,124.689389 C80.0288887,128.667175 76.8047818,131.891173 72.8272152,131.891173 C68.8493748,131.891173 65.6252679,128.667175 65.6252679,124.689389 L60.8241522,124.689389 L60.8241522,98.2827878 C60.8241522,95.630155 62.9725529,93.4816174 65.6252679,93.4816174 L99.2336252,93.4816174 L99.2336252,103.083986 L106.435299,103.083986 L106.435299,103.083986 Z M77.6296998,98.2874422 L77.6296998,105.489198 L70.4280263,105.489198 L70.4280263,110.290396 L77.6296998,110.290396 L77.6296998,117.492179 L82.4308155,117.492179 L82.4308155,110.290396 L89.6327628,110.290396 L89.6327628,105.489198 L82.4308155,105.489198 L82.4308155,98.2874422 L77.6296998,98.2874422 L77.6296998,98.2874422 Z" id="Fill-2" fill="#CE2029"></path>
                            <path d="M176.637379,128.290281 C174.64969,128.290281 173.036542,126.677078 173.036542,124.689389 C173.036542,122.701701 174.64969,121.088498 176.637379,121.088498 C178.625067,121.088498 180.238215,122.701701 180.238215,124.689389 C180.238215,126.677078 178.625067,128.290281 176.637379,128.290281 L176.637379,128.290281 Z M180.238215,106.684877 L181.992638,110.064029 L181.313374,111.160954 L182.151708,112.686436 L174.236821,112.686436 L174.236821,106.684877 L180.238215,106.684877 Z M147.830411,128.290281 C145.842723,128.290281 144.229574,126.677078 144.229574,124.689389 C144.229574,122.701701 145.842723,121.088498 147.830411,121.088498 C149.818099,121.088498 151.431248,122.701701 151.431248,124.689389 C151.431248,126.677078 149.818099,128.290281 147.830411,128.290281 L147.830411,128.290281 Z M181.438768,103.083986 L174.236821,103.083986 L174.236821,93.4816174 L140.628464,93.4816174 C137.976022,93.4816174 135.827348,95.630155 135.827348,98.2827878 L135.827348,124.689389 L140.628464,124.689389 C140.628464,128.667175 143.85257,131.891173 147.830411,131.891173 C151.808251,131.891173 155.032084,128.667175 155.032084,124.689389 L169.435705,124.689389 C169.435705,128.667175 172.659538,131.891173 176.637379,131.891173 C180.615219,131.891173 183.839326,128.667175 183.839326,124.689389 L185.786494,124.341407 L187.090264,122.834488 L186.191697,120.423444 L188.745576,116.22526 L186.999641,112.686381 L184.792923,111.545925 L181.438768,103.083986 L181.438768,103.083986 Z" id="Fill-3" fill="#6D6D6D"></path>
                            <path d="M198.205438,128.290281 C200.193126,128.290281 201.806275,126.677078 201.806275,124.689389 C201.806275,122.701701 200.193126,121.088498 198.205438,121.088498 C196.21775,121.088498 194.604328,122.701701 194.604328,124.689389 C194.604328,126.677078 196.21775,128.290281 198.205438,128.290281 L198.205438,128.290281 Z M194.604328,106.684877 L193.488101,111.048838 L192.118075,112.686409 L200.605996,112.686436 L200.605996,106.684877 L194.604328,106.684877 Z M227.012406,128.290281 C229.000094,128.290281 230.613243,126.677078 230.613243,124.689389 C230.613243,122.701701 229.000094,121.088498 227.012406,121.088498 C225.024718,121.088498 223.411569,122.701701 223.411569,124.689389 C223.411569,126.677078 225.024718,128.290281 227.012406,128.290281 L227.012406,128.290281 Z M193.404049,103.083986 L200.605996,103.083986 L200.605996,93.4816174 L234.214079,93.4816174 C236.866794,93.4816174 239.015469,95.630155 239.015469,98.2827878 L239.015469,124.689389 L234.214079,124.689389 C234.214079,128.667175 230.990246,131.891173 227.012406,131.891173 C223.034566,131.891173 219.810732,128.667175 219.810732,124.689389 L205.407112,124.689389 C205.407112,128.667175 202.183005,131.891173 198.205438,131.891173 C194.227598,131.891173 191.003491,128.667175 191.003491,124.689389 L188.688902,124.57826 L187.090264,120.995274 L190.020324,116.182714 L188.20211,112.686381 L191.205271,110.019676 L193.404049,103.083986 L193.404049,103.083986 Z" id="Fill-4" fill="#6D6D6D"></path>
                        </g>
                    </g>
                </g>
            </g>
        </g>
    </g>
</svg>