<?xml version="1.0" encoding="UTF-8" standalone="no"?>
<svg width="86px" height="179px" viewBox="0 0 86 179" version="1.1" xmlns="http://www.w3.org/2000/svg" xmlns:xlink="http://www.w3.org/1999/xlink" xmlns:sketch="http://www.bohemiancoding.com/sketch/ns">
    <!-- Generator: bin/sketchtool 1.4 (305) - http://www.bohemiancoding.com/sketch -->
    <title>timeline-3</title>
    <desc>Created with bin/sketchtool.</desc>
    <defs>
        <filter x="-50%" y="-50%" width="200%" height="200%" filterUnits="objectBoundingBox" id="filter-1">
            <feOffset dx="0" dy="0.5" in="SourceAlpha" result="shadowOffsetOuter1"></feOffset>
            <feGaussianBlur stdDeviation="0" in="shadowOffsetOuter1" result="shadowBlurOuter1"></feGaussianBlur>
            <feColorMatrix values="0 0 0 0 0   0 0 0 0 0   0 0 0 0 0  0 0 0 0.084 0" in="shadowBlurOuter1" type="matrix" result="shadowMatrixOuter1"></feColorMatrix>
            <feMerge>
                <feMergeNode in="shadowMatrixOuter1"></feMergeNode>
                <feMergeNode in="SourceGraphic"></feMergeNode>
            </feMerge>
        </filter>
        <path d="M136.684985,33.2012952 C136.684985,29.5704142 135.242575,26.0882597 132.675255,23.5208694 C130.107701,20.9534556 126.625734,19.5110931 122.994712,19.5110931 L64.5930234,19.5110931 C60.9622358,19.5110931 57.4800346,20.9534556 54.9127143,23.5208694 C52.3451604,26.0882597 50.9029848,29.5704142 50.9029848,33.2012952 L50.9029848,183.040822 C50.9029848,186.671672 52.3451604,190.153824 54.9127143,192.721231 C57.4800346,195.288638 60.9622358,196.730991 64.5930234,196.730991 L122.994712,196.730991 C126.625734,196.730991 130.107701,195.288638 132.675255,192.721231 C135.242575,190.153824 136.684985,186.671672 136.684985,183.040822 L136.684985,33.2012952 L136.684985,33.2012952 Z M94.0098555,178.055795 C97.7787162,178.055795 100.838521,181.115577 100.838521,184.884367 C100.838521,188.653142 97.7787162,191.712916 94.0098555,191.712916 C90.2412283,191.712916 87.1814236,188.653142 87.1814236,184.884367 C87.1814236,181.115577 90.2412283,178.055795 94.0098555,178.055795 L94.0098555,178.055795 Z M93.9925671,178.903976 C97.2743169,178.903976 99.9385921,181.568368 99.9385921,184.850165 C99.9385921,188.131952 97.2743169,190.796351 93.9925671,190.796351 C90.7108174,190.796351 88.0463085,188.131952 88.0463085,184.850165 C88.0463085,181.568368 90.7108174,178.903976 93.9925671,178.903976 L93.9925671,178.903976 Z M132.261736,41.1876495 C132.261736,40.9551445 132.169454,40.7321715 132.004981,40.567792 C131.840508,40.4033891 131.617628,40.3110366 131.38517,40.3110366 L56.4943649,40.3110366 C56.2619067,40.3110366 56.0387935,40.4033891 55.8743205,40.567792 C55.7100812,40.7321715 55.6175651,40.9551445 55.6175651,41.1876495 L55.6175651,174.687324 C55.6175651,174.919805 55.7100812,175.142778 55.8743205,175.307181 C56.0387935,175.471584 56.2619067,175.563936 56.4943649,175.563936 L131.38517,175.563936 C131.617628,175.563936 131.840508,175.471584 132.004981,175.307181 C132.169454,175.142778 132.261736,174.919805 132.261736,174.687324 L132.261736,41.1876495 L132.261736,41.1876495 Z M80.2583731,29.2288758 C81.0459276,29.2288758 81.6851294,29.8681944 81.6851294,30.6557022 C81.6851294,31.4431866 81.0459276,32.0825286 80.2583731,32.0825286 C79.4708186,32.0825286 78.8316168,31.4431866 78.8316168,30.6557022 C78.8316168,29.8681944 79.4708186,29.2288758 80.2583731,29.2288758 L80.2583731,29.2288758 Z M100.886882,30.6307976 C100.886882,30.2490989 100.57756,29.9396607 100.195815,29.9396607 L87.7486685,29.9396607 C87.3671566,29.9396607 87.0576016,30.2490989 87.0576016,30.6307976 L87.0576016,30.631919 C87.0576016,31.0136412 87.3671566,31.323056 87.7486685,31.323056 L100.195815,31.323056 C100.57756,31.323056 100.886882,31.0136412 100.886882,30.631919 L100.886882,30.6307976 L100.886882,30.6307976 Z M93.9899972,24.1962365 C94.4806126,24.1962365 94.878712,24.5944527 94.878712,25.0849513 C94.878712,25.5754498 94.4806126,25.973666 93.9899972,25.973666 C93.4996155,25.973666 93.1012825,25.5754498 93.1012825,25.0849513 C93.1012825,24.5944527 93.4996155,24.1962365 93.9899972,24.1962365 L93.9899972,24.1962365 Z" id="path-2"></path>
    </defs>
    <g id="index" stroke="none" stroke-width="1" fill="none" fill-rule="evenodd" sketch:type="MSPage">
        <g id="lg/main" sketch:type="MSArtboardGroup" transform="translate(-919.000000, -705.000000)">
            <g id="list" sketch:type="MSLayerGroup" transform="translate(0.000000, 320.000000)">
                <g id="about" transform="translate(352.000000, 325.000000)">
                    <g id="img" transform="translate(32.000000, 41.000000)">
                        <g id="timeline-3" transform="translate(484.205607, 0.339996)">
                            <rect id="bounds" sketch:type="MSShapeGroup" x="0.5" y="0.121042109" width="186" height="216"></rect>
                            <g id="img" transform="translate(55.000000, 39.660004)" sketch:type="MSShapeGroup">
                                <path d="M77.2622036,0.504469913 L0.325634954,0.504469913 L0.325634954,43.944903 L77.2622036,43.944903 L77.2622036,0.504469913 L77.2622036,0.504469913 Z" id="bg" fill="#F2F2ED" filter="url(#filter-1)"></path>
                                <path d="M21.056369,35.6680297 C21.8126176,35.6680297 22.4265877,35.0541997 22.4265877,34.297881 C22.4265877,33.541539 21.8126176,32.927709 21.056369,32.927709 C20.3001204,32.927709 19.6861503,33.541539 19.6861503,34.297881 C19.6861503,35.0541997 20.3001204,35.6680297 21.056369,35.6680297 L21.056369,35.6680297 Z M22.4265877,27.4470444 L20.1428899,27.4470444 L20.1428899,29.7306722 L24.2206047,29.7306722 L22.4265877,27.4470444 L22.4265877,27.4470444 Z M10.0950865,35.6680297 C10.8513351,35.6680297 11.4653052,35.0541997 11.4653052,34.297881 C11.4653052,33.541539 10.8513351,32.927709 10.0950865,32.927709 C9.33883791,32.927709 8.72486778,33.541539 8.72486778,34.297881 C8.72486778,35.0541997 9.33883791,35.6680297 10.0950865,35.6680297 L10.0950865,35.6680297 Z M22.8833273,26.0768958 L25.6235311,29.7306722 L25.6235311,34.297881 L23.7968065,34.297881 C23.7968065,35.8114295 22.5700343,37.0381783 21.056369,37.0381783 C19.5427037,37.0381783 18.3161652,35.8114295 18.3161652,34.297881 L12.8355239,34.297881 C12.8355239,35.8114295 11.6087518,37.0381783 10.0950865,37.0381783 C8.58165481,37.0381783 7.35488269,35.8114295 7.35488269,34.297881 L5.5279244,34.297881 L5.5279244,24.2500076 C5.5279244,23.2406715 6.3453831,22.4231427 7.35488269,22.4231427 L20.1428899,22.4231427 L20.1428899,26.0768958 L22.8833273,26.0768958 L22.8833273,26.0768958 Z M11.9225121,24.2517831 L11.9225121,26.9921038 L9.18230824,26.9921038 L9.18230824,28.8189686 L11.9225121,28.8189686 L11.9225121,31.5592892 L13.7494703,31.5592892 L13.7494703,28.8189686 L16.4896742,28.8189686 L16.4896742,26.9921038 L13.7494703,26.9921038 L13.7494703,24.2517831 L11.9225121,24.2517831 L11.9225121,24.2517831 Z" id="Fill-4" fill="#CE2029"></path>
                                <path d="M49.5954668,35.6680297 C48.8392182,35.6680297 48.2254817,35.0541997 48.2254817,34.297881 C48.2254817,33.541539 48.8392182,32.927709 49.5954668,32.927709 C50.351949,32.927709 50.9656855,33.541539 50.9656855,34.297881 C50.9656855,35.0541997 50.351949,35.6680297 49.5954668,35.6680297 L49.5954668,35.6680297 Z M50.9656855,27.4470444 L51.633156,28.7328306 L51.3747653,29.1502274 L51.6936653,29.7306722 L48.6819876,29.7306722 L48.6819876,27.4470444 L50.9656855,27.4470444 Z M38.6341842,35.6680297 C37.8779357,35.6680297 37.2641992,35.0541997 37.2641992,34.297881 C37.2641992,33.541539 37.8779357,32.927709 38.6341842,32.927709 C39.3906665,32.927709 40.004403,33.541539 40.004403,34.297881 C40.004403,35.0541997 39.3906665,35.6680297 38.6341842,35.6680297 L38.6341842,35.6680297 Z M51.4224251,26.0768958 L48.6819876,26.0768958 L48.6819876,22.4231427 L35.8939804,22.4231427 C34.8847145,22.4231427 34.0670221,23.2406715 34.0670221,24.2500076 L34.0670221,34.297881 L35.8939804,34.297881 C35.8939804,35.8114295 37.1207526,37.0381783 38.6341842,37.0381783 C40.1478496,37.0381783 41.3746217,35.8114295 41.3746217,34.297881 L46.8552629,34.297881 C46.8552629,35.8114295 48.0820351,37.0381783 49.5954668,37.0381783 C51.1091321,37.0381783 52.3359042,35.8114295 52.3359042,34.297881 L53.0767335,34.1654616 L53.5729559,33.5920724 L53.2309269,32.6746449 L54.2028126,31.0772246 L53.5383792,29.7306722 L52.698726,29.2967112 L51.4224251,26.0768958 L51.4224251,26.0768958 Z" id="Fill-5" fill="#6D6D6D"></path>
                                <path d="M57.8022942,35.6680297 C58.5585428,35.6680297 59.1722793,35.0541997 59.1722793,34.297881 C59.1722793,33.541539 58.5585428,32.927709 57.8022942,32.927709 C57.045812,32.927709 56.4320755,33.541539 56.4320755,34.297881 C56.4320755,35.0541997 57.045812,35.6680297 57.8022942,35.6680297 L57.8022942,35.6680297 Z M56.4320755,27.4470444 L56.0073428,29.1075673 L55.4861223,29.7306722 L58.7157734,29.7306722 L58.7157734,27.4470444 L56.4320755,27.4470444 Z M68.7635768,35.6680297 C69.5198254,35.6680297 70.1335619,35.0541997 70.1335619,34.297881 C70.1335619,33.541539 69.5198254,32.927709 68.7635768,32.927709 C68.0070945,32.927709 67.393358,33.541539 67.393358,34.297881 C67.393358,35.0541997 68.0070945,35.6680297 68.7635768,35.6680297 L68.7635768,35.6680297 Z M55.975336,26.0768958 L58.7157734,26.0768958 L58.7157734,22.4231427 L71.5037806,22.4231427 C72.5130465,22.4231427 73.3307389,23.2406715 73.3307389,24.2500076 L73.3307389,34.297881 L71.5037806,34.297881 C71.5037806,35.8114295 70.2770085,37.0381783 68.7635768,37.0381783 C67.2499114,37.0381783 66.0231393,35.8114295 66.0231393,34.297881 L60.5424981,34.297881 C60.5424981,35.8114295 59.3157259,37.0381783 57.8022942,37.0381783 C56.2886289,37.0381783 55.0618568,35.8114295 55.0618568,34.297881 L54.1810854,34.2555713 L53.5729559,32.8922445 L54.687821,31.0610342 L53.9958196,29.7306722 L55.1387199,28.7159627 L55.975336,26.0768958 L55.975336,26.0768958 Z" id="Fill-6" fill="#6D6D6D"></path>
                            </g>
                            <g id="text" transform="translate(60.000000, 90.000000)" stroke="#CBCBCB" stroke-width="1.041667" sketch:type="MSShapeGroup" stroke-linecap="round" stroke-linejoin="round">
                                <path d="M0.747272214,1.80697271 C1.23598122,1.70823286 1.35591566,2.37933865 1.50960444,2.31351209 C1.77683564,2.1989604 1.60890499,1.58981232 1.81883231,1.45395391 C2.12985444,1.25271749 2.25803122,2.55169885 2.64878536,2.29416782 C2.90670888,2.12421865 2.94769629,1.41515324 3.19967636,1.32947777 C3.26589542,1.3069375 3.58274887,2.14989886 3.80736661,2.19868005 C4.14900314,2.2728611 4.22267956,1.438086 4.55091528,1.35846613 C4.75473093,1.3090121 4.94436079,2.04258025 5.23648722,2.1031362 C5.72037418,2.20355817 6.27866646,1.18756376 6.50132175,1.31983367 C6.85731228,1.53133096 6.84497681,2.08362373 7.3512919,2.1031362 C8.09198098,2.13173207 8.18449702,1.22569159 8.80855981,1.07194674 C9.34291007,0.940293602 9.57391983,1.98897701 10.286013,1.71148494 C10.4559061,1.64537802 11.0126845,0.948087379 11.1741671,1.02423089 C11.7449631,1.29269563 11.4618079,1.87722884 12.0914777,2.08440871 C12.5529365,2.23607896 12.8265598,1.35846613 13.3267071,1.35846613 C13.5980875,1.35846613 13.7107889,2.0052374 14.1189809,2.03663679 C14.7766859,2.0872683 14.9353649,1.35908291 15.4803685,1.25327819 C15.5840986,1.23320501 15.8336116,1.99374299 16.3584299,1.86438873 C16.7296155,1.77305016 16.8613808,1.26578188 17.2179881,1.17657398 C17.2914402,1.15818291 17.4136736,1.67823523 17.4787151,1.76890096 C17.6368335,1.99110768 17.8689646,1.97871614 18.1156741,1.96957667 C18.5563869,1.95320414 19.1619465,0.925098543 19.2841798,1.34882204 C19.3834243,1.69376671 19.3615569,2.19256838 19.8342298,2.22766841 C20.5766009,2.28278554 20.7459333,1.47873699 21.3212149,1.39653789 C21.5533461,1.36340032 21.5253109,1.90700218 21.75576,1.95023241 C22.3730944,2.06607371 22.5177558,1.52869566 23.0010821,1.36754953 C23.3038619,1.26673507 23.9161499,1.98264106 24.4398468,1.77854506 C24.8693455,1.6113994 25.0616667,0.985710571 25.4922869,0.842282663 C25.59041,0.80948152 26.0967251,1.39653789 26.3995048,1.39653789 C26.743216,1.39653789 26.962451,1.37046518 27.259063,1.18621808 C27.3717644,1.1162423 27.5276399,0.824508368 27.5775425,0.947470605 C27.7569676,1.39149156 28.2430973,1.60354955 28.706799,1.51136993 C28.8890276,1.47526063 29.666723,0.80959366 29.8175522,0.928687044 C30.1921021,1.22389734 30.1124822,1.68294514 30.7539268,1.70240155 C31.2232354,1.71664341 31.8001992,0.906875685 32.0962505,1.27206175 C32.3894983,1.63450037 32.8061009,1.82654126 33.2838201,1.7501174 C33.7424754,1.67672133 34.0245092,1.10956993 34.4904536,1.04295838 C34.8891137,0.986046993 35.2255357,1.79800146 35.8804372,1.69275745 C36.4630079,1.59906392 36.8184938,0.881363684 37.3965789,0.823555173 C37.6830983,0.794847163 37.8827087,1.33715941 38.2359518,1.37724969 C38.7523595,1.43578712 39.3405373,0.932668037 39.7812501,1.06230264 C40.197292,1.18459204 40.3441962,1.70234547 40.8914427,1.56822524 C41.2929062,1.46976574 41.5379336,1.01318503 41.9337901,0.899698683 C42.7232604,0.673454896 43.0193117,1.61470755 43.7975679,1.43466571 C44.3593927,1.30463862 44.6789935,0.646485067 45.2839924,0.575107535 C45.8957197,0.502945018 45.985993,1.28097694 46.5876276,1.30105011 C47.246454,1.32308575 47.5587658,0.816546381 48.1519899,0.728011328 C48.4940189,0.676987327 48.5915813,1.45159895 49.0300513,1.51136993 C49.7213984,1.60562415 50.1699611,0.927117075 50.8355159,0.880971192 C51.4354685,0.839367006 51.5246203,1.2876493 52.0427102,1.41588215 C52.6292058,1.56104824 53.7433233,0.541353195 54.0315248,0.728011328 C54.2574882,0.874354893 54.1240408,1.39810786 54.5238223,1.42496555 C55.1187285,1.46494369 55.4697288,0.73849648 56.0685599,0.670595309 C56.7464502,0.593722885 56.7352362,1.3706334 57.30435,1.40623806 C58.0540104,1.45311285 58.4330458,0.426633298 59.3127893,0.565463438 C59.5841697,0.608357241 59.7277098,1.12470892 59.9884368,1.25327819 C60.7588431,1.63354718 61.7322241,0.582564889 62.633835,0.660951212 C63.0397842,0.696275521 63.0246452,1.29045282 63.3963915,1.36754953 C64.0036332,1.49353956 64.4908844,0.9229118 65.0375701,0.746794889 C65.3274537,0.653549928 66.1382307,0.879681574 66.1382307,0.737711496" id="Stroke-13"></path>
                                <path d="M0.747272214,19.6961558 C1.23598122,19.5973599 1.35591566,20.2685218 1.50960444,20.2026391 C1.77683564,20.0881435 1.60890499,19.4789394 1.81883231,19.343137 C2.12985444,19.1418445 2.25803122,20.440882 2.64878536,20.1832949 C2.90670888,20.0133457 2.94769629,19.3042803 3.19967636,19.2186048 C3.26589542,19.1961206 3.58274887,20.0390259 3.80736661,20.0878071 C4.14900314,20.1619881 4.22267956,19.3272691 4.55091528,19.2475932 C4.75473093,19.1981392 4.94436079,19.9317073 5.23648722,19.9923193 C5.72037418,20.0926852 6.27866646,19.0766908 6.50132175,19.2089607 C6.85731228,19.420458 6.84497681,19.9728069 7.3512919,19.9923193 C8.09198098,20.0208591 8.18449702,19.1148186 8.80855981,18.9611299 C9.34291007,18.8294767 9.57391983,19.8781041 10.286013,19.600612 C10.4559061,19.5345051 11.0126845,18.8372705 11.1741671,18.9133579 C11.7449631,19.1818788 11.4618079,19.766412 12.0914777,19.9735358 C12.5529365,20.1252621 12.8265598,19.2475932 13.3267071,19.2475932 C13.5980875,19.2475932 13.7107889,19.8944205 14.1189809,19.9258199 C14.7766859,19.9763954 14.9353649,19.248266 15.4803685,19.1424613 C15.5840986,19.1223321 15.8336116,19.8829261 16.3584299,19.7535719 C16.7296155,19.6621772 16.8613808,19.1549089 17.2179881,19.065701 C17.2914402,19.047366 17.4136736,19.5674184 17.4787151,19.658028 C17.6368335,19.8802908 17.8689646,19.8678993 18.1156741,19.8587037 C18.5563869,19.8423873 19.1619465,18.8142256 19.2841798,19.2379491 C19.3834243,19.5828938 19.3615569,20.0816954 19.8342298,20.1167955 C20.5766009,20.1719126 20.7459333,19.3679201 21.3212149,19.285721 C21.5533461,19.2525274 21.5253109,19.7961292 21.75576,19.8394155 C22.3730944,19.9552568 22.5177558,19.4178227 23.0010821,19.2567327 C23.3038619,19.1559182 23.9161499,19.8718242 24.4398468,19.6677282 C24.8693455,19.5005265 25.0616667,18.8748376 25.4922869,18.7314658 C25.59041,18.6986086 26.0967251,19.285721 26.3995048,19.285721 C26.743216,19.285721 26.962451,19.2595922 27.259063,19.0753451 C27.3717644,19.0054254 27.5276399,18.7136354 27.5775425,18.8365977 C27.7569676,19.2806186 28.2430973,19.4926766 28.706799,19.4005531 C28.8890276,19.3643877 29.666723,18.6987207 29.8175522,18.8178702 C30.1921021,19.1130244 30.1124822,19.5721283 30.7539268,19.5915286 C31.2232354,19.6057705 31.8001992,18.7960588 32.0962505,19.1611888 C32.3894983,19.5236274 32.8061009,19.7156683 33.2838201,19.6393005 C33.7424754,19.5658484 34.0245092,18.998697 34.4904536,18.9321415 C34.8891137,18.875174 35.2255357,19.6871285 35.8804372,19.5818845 C36.4630079,19.488191 36.8184938,18.7704907 37.3965789,18.7126822 C37.6830983,18.6840303 37.8827087,19.2263425 38.2359518,19.2663767 C38.7523595,19.3249142 39.3405373,18.8217951 39.7812501,18.9514297 C40.197292,19.0737752 40.3441962,19.5915286 40.8914427,19.4574084 C41.2929062,19.3589489 41.5379336,18.9023682 41.9337901,18.7888818 C42.7232604,18.562582 43.0193117,19.5038346 43.7975679,19.3237928 C44.3593927,19.1938217 44.6789935,18.5356121 45.2839924,18.4642907 C45.8957197,18.3921281 45.985993,19.170104 46.5876276,19.1901772 C47.246454,19.2122128 47.5587658,18.7057295 48.1519899,18.6171945 C48.4940189,18.5661144 48.5915813,19.340726 49.0300513,19.4005531 C49.7213984,19.4947512 50.1699611,18.8162441 50.8355159,18.7700982 C51.4354685,18.7285501 51.5246203,19.1768324 52.0427102,19.3050092 C52.6292058,19.4502314 53.7433233,18.4305363 54.0315248,18.6171945 C54.2574882,18.7634819 54.1240408,19.2872349 54.5238223,19.3141487 C55.1187285,19.3541268 55.4697288,18.6276796 56.0685599,18.5597784 C56.7464502,18.482906 56.7352362,19.2598165 57.30435,19.2953651 C58.0540104,19.3422399 58.4330458,18.3157604 59.3127893,18.4545905 C59.5841697,18.4974843 59.7277098,19.013892 59.9884368,19.1424613 C60.7588431,19.5226742 61.7322241,18.471748 62.633835,18.5500783 C63.0397842,18.5854586 63.0246452,19.1795799 63.3963915,19.2567327 C64.0036332,19.3826666 64.4908844,18.8120949 65.0375701,18.6359219 C65.3274537,18.542677 66.1382307,18.7688086 66.1382307,18.6268385" id="Stroke-14"></path>
                                <path d="M0.747272214,10.5170501 C1.23598122,10.4183103 1.35591566,11.0894161 1.50960444,11.0235895 C1.77683564,10.9090378 1.60890499,10.2998897 1.81883231,10.1640313 C2.12985444,9.96279489 2.25803122,11.2617763 2.64878536,11.0042452 C2.90670888,10.834296 2.94769629,10.1252306 3.19967636,10.0395552 C3.26589542,10.0170149 3.58274887,10.8599763 3.80736661,10.9087574 C4.14900314,10.9829385 4.22267956,10.1482195 4.55091528,10.0685435 C4.75473093,10.0190895 4.94436079,10.7526576 5.23648722,10.8132697 C5.72037418,10.9136356 6.27866646,9.89764117 6.50132175,10.0299111 C6.85731228,10.2414084 6.84497681,10.7937011 7.3512919,10.8132697 C8.09198098,10.8418095 8.18449702,9.93576899 8.80855981,9.78202414 C9.34291007,9.650371 9.57391983,10.6990544 10.286013,10.4215623 C10.4559061,10.3554554 11.0126845,9.65822085 11.1741671,9.73430829 C11.7449631,10.002773 11.4618079,10.5873062 12.0914777,10.7944861 C12.5529365,10.9461564 12.8265598,10.0685435 13.3267071,10.0685435 C13.5980875,10.0685435 13.7107889,10.7153148 14.1189809,10.7467142 C14.7766859,10.7973457 14.9353649,10.0691603 15.4803685,9.96335559 C15.5840986,9.94328241 15.8336116,10.7038204 16.3584299,10.5744661 C16.7296155,10.4831276 16.8613808,9.97585928 17.2179881,9.88665138 C17.2914402,9.86826031 17.4136736,10.3883126 17.4787151,10.4789784 C17.6368335,10.7011851 17.8689646,10.6887935 18.1156741,10.6796541 C18.5563869,10.6632815 19.1619465,9.63517594 19.2841798,10.0588994 C19.3834243,10.4038441 19.3615569,10.9026458 19.8342298,10.9377458 C20.5766009,10.9928629 20.7459333,10.1888144 21.3212149,10.1066153 C21.5533461,10.0734777 21.5253109,10.6170796 21.75576,10.6603098 C22.3730944,10.7761511 22.5177558,10.2387731 23.0010821,10.0776269 C23.3038619,9.97681247 23.9161499,10.6927185 24.4398468,10.4886225 C24.8693455,10.3214768 25.0616667,9.69578797 25.4922869,9.55236007 C25.59041,9.51955892 26.0967251,10.1066153 26.3995048,10.1066153 C26.743216,10.1066153 26.962451,10.0805426 27.259063,9.89629548 C27.3717644,9.8263197 27.5276399,9.53458577 27.5775425,9.65754801 C27.7569676,10.101569 28.2430973,10.313627 28.706799,10.2214473 C28.8890276,10.185338 29.666723,9.51967106 29.8175522,9.63876445 C30.1921021,9.93397474 30.1124822,10.3930225 30.7539268,10.4124789 C31.2232354,10.4267208 31.8001992,9.61695309 32.0962505,9.98213915 C32.3894983,10.3445778 32.8061009,10.5366187 33.2838201,10.4602509 C33.7424754,10.3867987 34.0245092,9.81964733 34.4904536,9.75303578 C34.8891137,9.69612439 35.2255357,10.5080789 35.8804372,10.4028348 C36.4630079,10.3091413 36.8184938,9.59144109 37.3965789,9.53363257 C37.6830983,9.50492456 37.8827087,10.0472368 38.2359518,10.0873271 C38.7523595,10.1458645 39.3405373,9.64274544 39.7812501,9.77238005 C40.197292,9.89466944 40.3441962,10.4124789 40.8914427,10.2783026 C41.2929062,10.1798431 41.5379336,9.72331851 41.9337901,9.60977608 C42.7232604,9.3835323 43.0193117,10.3247849 43.7975679,10.1447431 C44.3593927,10.014716 44.6789935,9.35656247 45.2839924,9.28518494 C45.8957197,9.21302242 45.985993,9.99105434 46.5876276,10.0111275 C47.246454,10.0331632 47.5587658,9.52667985 48.1519899,9.4381448 C48.4940189,9.38706473 48.5915813,10.1616764 49.0300513,10.2214473 C49.7213984,10.3157016 50.1699611,9.63719448 50.8355159,9.59104859 C51.4354685,9.54944441 51.5246203,9.99772671 52.0427102,10.1259596 C52.6292058,10.2711256 53.7433233,9.2514306 54.0315248,9.4381448 C54.2574882,9.58443229 54.1240408,10.1081853 54.5238223,10.1350429 C55.1187285,10.1750211 55.4697288,9.44857388 56.0685599,9.38072878 C56.7464502,9.30380029 56.7352362,10.0807108 57.30435,10.1163155 C58.0540104,10.1631903 58.4330458,9.1367107 59.3127893,9.27554084 C59.5841697,9.31843464 59.7277098,9.83478632 59.9884368,9.96335559 C60.7588431,10.3436246 61.7322241,9.29264229 62.633835,9.37102861 C63.0397842,9.40635292 63.0246452,10.0005302 63.3963915,10.0776269 C64.0036332,10.203617 64.4908844,9.6329892 65.0375701,9.45687229 C65.3274537,9.36362733 66.1382307,9.58975898 66.1382307,9.4477889" id="Stroke-15"></path>
                                <path d="M1.14290447,5.82833687 C1.18187335,5.92135755 1.6247729,6.83065011 1.97347429,6.65885062 C2.11230443,6.59050089 2.22517401,5.87610879 2.2531531,5.87610879 C2.45551093,5.87610879 2.55049407,6.82341704 2.94836914,6.77368266 C3.06376188,6.75927258 3.54209788,5.74075502 3.59530862,5.82833687 C3.70924353,6.01600427 4.14917135,7.01641112 4.52192692,6.71626664 C4.6109666,6.64455268 5.03300798,5.82031882 5.09148934,5.86640863 C5.39482983,6.10549252 5.66329458,6.70426759 6.14432195,6.59235121 C6.37421031,6.53886011 6.90328996,5.49045706 7.10962877,5.61801706 C7.44605076,5.82581371 7.60304769,6.51873086 8.12338036,6.38203139 C8.47213782,6.29030033 8.59212833,5.54478921 8.97284588,5.5895894 C9.3311353,5.63169822 9.33954585,6.44909151 9.83184336,6.44909151 C10.1822829,6.44909151 10.8455949,5.4431337 11.0581015,5.5895894 C11.340696,5.7838731 11.3715347,6.35949112 11.7629056,6.42010315 C12.2664171,6.49809698 12.8119815,5.20175092 13.0760727,5.63736132 C13.2319482,5.89388309 13.2515729,6.36593921 13.5784629,6.48721934 C14.2423356,6.73387272 14.6359493,5.7043093 15.2095488,5.55090087 C15.8818321,5.37125153 15.6833431,6.37659257 16.3780545,6.21034404 C16.7262513,6.12691139 17.0598698,5.78577949 17.3340537,5.57024514 C17.3351751,5.5691798 17.7041179,5.29622943 17.7198176,5.35084193 C17.8745717,5.8828933 17.9867123,6.47168785 18.7431011,6.05744025 C18.8485133,5.99974388 20.3848404,4.97029259 20.4039043,5.04497827 C20.5552942,5.64167874 20.7683615,6.08670896 21.495033,5.53217338 C21.7215571,5.35975711 21.9940589,4.75100153 22.1516165,4.98756225 C22.3013243,5.21212393 22.1740447,5.61476498 22.4218755,5.81869278 C22.678117,6.02979757 23.1406972,5.03533418 23.2909657,5.33149767 C23.7804597,6.296412 24.0170765,5.19165826 24.5940402,5.27408165 C24.8385068,5.30901346 25.0055964,5.64846325 25.2988442,5.68507718 C25.5494786,5.71636442 26.0457011,5.08663853 26.0714934,5.11209446 C26.1982124,5.23679488 26.5037957,5.96683059 26.7959221,5.7328491 C26.911427,5.64022091 27.1985071,4.99501961 27.3941925,5.0927502 C27.4743731,5.13278441 27.6851975,5.71137416 27.8382695,5.5986728 C28.0294694,5.45816055 28.166281,4.89779365 28.5240097,5.04497827 C28.7623086,5.14315742 29.0420996,5.8165621 29.3830072,5.63736132 C29.6426128,5.50066186 29.8197951,5.01004646 30.1264998,4.96883476 C30.4707716,4.9224646 30.6939315,5.70761745 31.0527816,5.51282912 C31.2720166,5.39384788 31.3813538,5.04099728 31.6611447,5.00690652 C32.2005413,4.94124816 32.5044425,5.9363844 33.0707529,5.65608881 C33.3533473,5.51641762 33.4565167,5.00814007 33.7469611,4.91141875 C33.9970347,4.82804216 34.3547634,5.54282675 34.8571536,5.38891369 C35.296745,5.25434489 35.6499881,4.58166913 36.1798527,4.74881478 C36.8156903,4.94943443 37.1812688,5.35992532 37.8984084,5.35992532 C38.2976291,5.35992532 38.8342222,4.82271548 39.076446,5.14046605 C39.2396107,5.35482292 39.3007274,5.54148106 39.616964,5.57024514 C40.1692568,5.62048415 40.5258641,5.06258436 41.0557287,5.16889371 C41.3551443,5.22905717 41.5188697,5.59547679 41.8564131,5.61801706 C42.2315236,5.64296836 42.232645,5.23040286 42.5326213,5.15981031 C42.9963229,5.05064138 43.3989079,5.28490322 43.8362565,5.39855778 C44.5444248,5.58286096 45.1774588,4.40471116 45.757226,4.69139877 C46.1194404,4.87026312 46.1312151,5.25625128 46.6263162,5.28372574 C46.9470384,5.30155611 47.2531825,4.85585305 47.5340948,4.9494905 C47.9849003,5.09975899 48.0673237,5.60057919 48.6734439,5.57024514 C48.9941662,5.55420902 49.0401439,5.08305003 49.4068439,5.08305003 C49.8273714,5.08305003 50.0639882,5.75634257 50.6616979,5.55090087 C50.9370032,5.45642237 51.1091391,5.12050501 51.4147224,5.0927502 C51.8694528,5.05142636 52.198025,5.82239342 52.8921757,5.70386074 C53.4052192,5.61627888 53.6794031,5.00589725 54.2339387,4.9494905 C54.5512968,4.91725006 54.926968,4.91343728 55.2095625,5.07340593 C55.2673149,5.10626315 55.7455948,5.52252929 55.8179256,5.43668561 C56.0640743,5.14411062 56.3926465,4.85602126 56.8311164,5.00690652 C57.2247302,5.14220423 57.635165,6.10089475 58.1639082,5.81869278 C58.5754644,5.59872887 58.5721002,4.94713555 59.1098147,4.79658671 C59.6654717,4.6408794 59.8314399,5.48311184 60.5872679,5.42698544 C60.8962155,5.40405268 61.6357831,4.78660619 61.9480949,5.00690652 C62.2475104,5.21829167 62.5211337,5.59671033 62.9719391,5.42698544 C63.2337876,5.32852594 63.316211,4.84934889 63.5803022,4.79658671 C63.9868121,4.71528473 64.2492213,5.70116936 64.8732841,5.4554131 C65.4210912,5.23987875 65.5169715,4.91141875 66.2929848,4.91141875" id="Stroke-16"></path>
                                <path d="M1.14290447,14.7203064 C1.18187335,14.8133271 1.6247729,15.7226197 1.97347429,15.5508762 C2.11230443,15.4824704 2.22517401,14.7680784 2.2531531,14.7680784 C2.45551093,14.7680784 2.55049407,15.7154427 2.94836914,15.6657083 C3.06376188,15.6512982 3.54209788,14.6327246 3.59530862,14.7203064 C3.70924353,14.9079738 4.14917135,15.9083807 4.52192692,15.6082923 C4.6109666,15.5365783 5.03300798,14.7122884 5.09148934,14.7584343 C5.39482983,14.9975181 5.66329458,15.5962371 6.14432195,15.4843768 C6.37421031,15.4308857 6.90328996,14.3824827 7.10962877,14.5099866 C7.44605076,14.7177833 7.60304769,15.4107565 8.12338036,15.274001 C8.47213782,15.1822699 8.59212833,14.4367588 8.97284588,14.481559 C9.3311353,14.5236678 9.33954585,15.3411171 9.83184336,15.3411171 C10.1822829,15.3411171 10.8455949,14.3351593 11.0581015,14.481559 C11.340696,14.6758427 11.3715347,15.2515167 11.7629056,15.3121288 C12.2664171,15.3900665 12.8119815,14.0937205 13.0760727,14.5293309 C13.2319482,14.7858526 13.2515729,15.2579088 13.5784629,15.3791889 C14.2423356,15.6258423 14.6359493,14.5963349 15.2095488,14.4429265 C15.8818321,14.2632772 15.6833431,15.2685621 16.3780545,15.1023697 C16.7262513,15.018937 17.0598698,14.677749 17.3340537,14.4622708 C17.3351751,14.4611494 17.7041179,14.188199 17.7198176,14.2428115 C17.8745717,14.7748629 17.9867123,15.3636574 18.7431011,14.9494098 C18.8485133,14.8917134 20.3848404,13.8622621 20.4039043,13.9370039 C20.5552942,14.5336483 20.7683615,14.9786785 21.495033,14.4241429 C21.7215571,14.2517267 21.9940589,13.6429711 22.1516165,13.8795879 C22.3013243,14.1040935 22.1740447,14.5067906 22.4218755,14.7106623 C22.678117,14.9218232 23.1406972,13.9273037 23.2909657,14.2234672 C23.7804597,15.1883816 24.0170765,14.0836839 24.5940402,14.1660512 C24.8385068,14.200983 25.0055964,14.5404328 25.2988442,14.5771028 C25.5494786,14.60839 26.0457011,13.9786081 26.0714934,14.004064 C26.1982124,14.1288205 26.5037957,14.8588001 26.7959221,14.6248187 C26.911427,14.5321905 27.1985071,13.8869892 27.3941925,13.9847198 C27.4743731,14.024754 27.6851975,14.6033998 27.8382695,14.4906424 C28.0294694,14.3501862 28.166281,13.7897632 28.5240097,13.9370039 C28.7623086,14.035127 29.0420996,14.7085317 29.3830072,14.5293309 C29.6426128,14.3926314 29.8197951,13.902016 30.1264998,13.8608043 C30.4707716,13.8144902 30.6939315,14.5996431 31.0527816,14.4048547 C31.2720166,14.2858735 31.3813538,13.9329668 31.6611447,13.8988761 C32.2005413,13.8332177 32.5044425,14.828354 33.0707529,14.5480584 C33.3533473,14.4083872 33.4565167,13.9001096 33.7469611,13.8033883 C33.9970347,13.7200117 34.3547634,14.4347963 34.8571536,14.2808832 C35.296745,14.1463144 35.6499881,13.4736387 36.1798527,13.6407843 C36.8156903,13.841404 37.1812688,14.2518949 37.8984084,14.2518949 C38.2976291,14.2518949 38.8342222,13.714685 39.076446,14.0324917 C39.2396107,14.2467925 39.3007274,14.4335067 39.616964,14.4622708 C40.1692568,14.5124537 40.5258641,13.9545539 41.0557287,14.0609193 C41.3551443,14.1210267 41.5188697,14.4875024 41.8564131,14.5099866 C42.2315236,14.534994 42.232645,14.1224285 42.5326213,14.0518359 C42.9963229,13.942667 43.3989079,14.1768728 43.8362565,14.2905834 C44.5444248,14.4748305 45.1774588,13.2967368 45.757226,13.5833683 C46.1194404,13.7622887 46.1312151,14.1482208 46.6263162,14.1757514 C46.9470384,14.1935817 47.2531825,13.7478226 47.5340948,13.8414601 C47.9849003,13.9917285 48.0673237,14.4925487 48.6734439,14.4622708 C48.9941662,14.4461786 49.0401439,13.9750757 49.4068439,13.9750757 C49.8273714,13.9750757 50.0639882,14.6483682 50.6616979,14.4429265 C50.9370032,14.3483919 51.1091391,14.0125306 51.4147224,13.9847198 C51.8694528,13.943452 52.198025,14.714419 52.8921757,14.5958303 C53.4052192,14.5083045 53.6794031,13.8978668 54.2339387,13.8414601 C54.5512968,13.8092196 54.926968,13.8054629 55.2095625,13.9654316 C55.2673149,13.9982327 55.7455948,14.4144988 55.8179256,14.3286552 C56.0640743,14.0361362 56.3926465,13.7479908 56.8311164,13.8988761 C57.2247302,14.0342299 57.635165,14.9929204 58.1639082,14.7106623 C58.5754644,14.4906984 58.5721002,13.8391051 59.1098147,13.6885563 C59.6654717,13.532905 59.8314399,14.3751375 60.5872679,14.3190111 C60.8962155,14.2960783 61.6357831,13.6785757 61.9480949,13.8988761 C62.2475104,14.1102612 62.5211337,14.4886799 62.9719391,14.3190111 C63.2337876,14.2204955 63.316211,13.7413184 63.5803022,13.6885563 C63.9868121,13.6072543 64.2492213,14.593195 64.8732841,14.3474387 C65.4210912,14.1318483 65.5169715,13.8033883 66.2929848,13.8033883" id="Stroke-17"></path>
                                <path d="M0.747272214,24.6281582 C1.00317721,24.8684196 1.18529364,25.2364092 1.51924853,25.3444567 C1.83520485,25.4466729 1.94667267,24.1087788 2.47541589,24.3990549 C2.8779448,24.6200841 3.03903486,25.4037231 3.60495272,25.2779573 C3.80938515,25.2325403 4.24000529,24.2747469 4.43490576,24.3894108 C4.65335577,24.517924 4.79151307,25.2974137 5.19779869,25.1249975 C5.5697132,24.9672155 6.10406345,23.9498194 6.62697536,24.1887351 C7.05860477,24.3859905 6.89263659,24.9940732 7.57276971,24.8191899 C7.80994721,24.7582414 8.27477026,24.2059487 8.50970495,24.2842789 C8.74295752,24.3619363 8.60558521,24.8653918 9.00200245,24.88625 C9.27618637,24.9007161 9.95575879,24.4448643 10.112195,24.5230264 C10.2787239,24.6063469 10.1620976,24.9935125 10.4497384,25.0295097 C10.9005439,25.0858043 11.3334068,24.0805193 11.6569326,24.3990549 C11.8784104,24.6174488 11.8761676,25.0029884 12.2361392,25.086365 C12.7346044,25.2020381 13.1175648,24.2648786 13.4141768,24.408755 C13.6384581,24.5176436 13.6036945,24.8818204 13.9160063,24.9340219 C14.3006488,24.9983906 14.9185438,24.1617652 15.084512,24.2745787 C15.7736164,24.7432706 15.7865125,24.4769366 16.6483135,24.3609831 C16.7464366,24.3478066 16.8888553,24.7454574 17.053702,24.7998456 C17.5022647,24.9475909 17.6345907,24.4902813 17.9519487,24.3035671 C18.2317397,24.1388885 18.476767,24.7663716 18.8014143,24.7811181 C19.2937118,24.8034902 19.4333269,24.2558512 19.8919822,24.2558512 C19.9923481,24.2558512 20.6937879,24.3371532 20.6937879,24.3797667" id="Stroke-18"></path>
                            </g>
                            <g id="phone">
                                <use fill="#FFFFFF" sketch:type="MSShapeGroup" xlink:href="#path-2"></use>
                                <use fill-opacity="0.26" fill="#000000" xlink:href="#path-2"></use>
                            </g>
                        </g>
                    </g>
                </g>
            </g>
        </g>
    </g>
</svg>