<?xml version="1.0" encoding="UTF-8" standalone="no"?>
<svg width="194px" height="71px" viewBox="0 0 194 71" version="1.1" xmlns="http://www.w3.org/2000/svg" xmlns:xlink="http://www.w3.org/1999/xlink" xmlns:sketch="http://www.bohemiancoding.com/sketch/ns">
    <!-- Generator: bin/sketchtool 1.4 (305) - http://www.bohemiancoding.com/sketch -->
    <title>wordmark</title>
    <desc>Created with bin/sketchtool.</desc>
    <defs>
        <filter x="-50%" y="-50%" width="200%" height="200%" filterUnits="objectBoundingBox" id="filter-1">
            <feOffset dx="0" dy="2" in="SourceAlpha" result="shadowOffsetOuter1"></feOffset>
            <feGaussianBlur stdDeviation="1" in="shadowOffsetOuter1" result="shadowBlurOuter1"></feGaussianBlur>
            <feColorMatrix values="0 0 0 0 0   0 0 0 0 0   0 0 0 0 0  0 0 0 0.035 0" in="shadowBlurOuter1" type="matrix" result="shadowMatrixOuter1"></feColorMatrix>
            <feOffset dx="0" dy="3" in="SourceAlpha" result="shadowOffsetOuter2"></feOffset>
            <feGaussianBlur stdDeviation="1.5" in="shadowOffsetOuter2" result="shadowBlurOuter2"></feGaussianBlur>
            <feColorMatrix values="0 0 0 0 0   0 0 0 0 0   0 0 0 0 0  0 0 0 0.07 0" in="shadowBlurOuter2" type="matrix" result="shadowMatrixOuter2"></feColorMatrix>
            <feMerge>
                <feMergeNode in="shadowMatrixOuter1"></feMergeNode>
                <feMergeNode in="shadowMatrixOuter2"></feMergeNode>
                <feMergeNode in="SourceGraphic"></feMergeNode>
            </feMerge>
        </filter>
    </defs>
    <g id="reset" stroke="none" stroke-width="1" fill="none" fill-rule="evenodd" sketch:type="MSPage">
        <g id="lg/recover" sketch:type="MSArtboardGroup" transform="translate(-34.000000, -31.000000)" filter="url(#filter-1)" fill="#FFFFFF">
            <g id="nav" sketch:type="MSLayerGroup">
                <g id="wordmark" transform="translate(36.000000, 31.000000)" sketch:type="MSShapeGroup">
                    <path d="M35.2725776,9.91544827 C35.2579077,20.031268 35.2379508,30.1470878 35.2335136,40.2629076 C35.233259,41.1575777 35.2330275,42.0522246 35.2330044,42.9468946 C35.2329812,44.4868485 35.234648,46.0267792 35.2332127,47.5667331 C35.2316617,47.9058688 35.2252262,48.244935 35.2114988,48.5838392 C35.1713812,49.5736525 35.0747333,50.5622388 34.9019014,51.5379774 C34.7442786,52.4279481 34.5231806,53.3083814 34.2165464,54.1591143 C34.1593679,54.3177789 34.0992263,54.4753555 34.0358901,54.6316588 C33.5754526,55.7680528 32.9430629,56.8477081 32.0880474,57.7331416 C31.6770566,58.1587395 31.2163645,58.5362103 30.7142122,58.849442 C30.3835722,59.0556782 30.0356861,59.2339965 29.6756004,59.3830078 C29.318038,59.5309543 28.948762,59.6500338 28.5729117,59.741774 C27.8122755,59.9274537 27.0266613,60.0015775 26.2445657,59.9910446 C25.6446775,59.9829886 25.0448124,59.922222 24.4578183,59.7968923 C23.8920289,59.6760998 23.339064,59.4947258 22.8146422,59.2499694 C22.2534594,58.9880594 21.7269542,58.6540397 21.2494094,58.2598784 C20.7548269,57.8516192 20.3135338,57.3803942 19.9303915,56.8664589 C19.3462216,56.0828355 18.8951827,55.2013605 18.581812,54.2763187 C18.3495098,53.5905007 18.1911231,52.8776675 18.1241524,52.1563386 C18.1070683,51.9721636 18.0960956,51.7874099 18.0919519,51.602471 C18.0881091,51.4305882 18.0901926,51.2585203 18.0952854,51.0866838 C18.1050775,50.7566689 18.1289675,50.4270012 18.1688767,50.0992549 C18.2458709,49.4672588 18.383053,48.8419759 18.5910948,48.2399348 C18.8073546,47.6142121 19.1004697,47.0156433 19.4664122,46.4637897 C19.9809956,45.6877593 20.6354465,45.0102518 21.377193,44.4489301 C21.6742666,44.2241514 21.9851834,44.0177069 22.3071193,43.8302679 C22.4369631,43.7546858 22.5687746,43.6826223 22.7019056,43.6129664 C22.749292,43.588544 22.7967942,43.5643994 22.8444584,43.5405094 C22.8929559,43.51655 22.9415692,43.4929147 22.9903446,43.469534 L20.5869489,38.460465 C20.2767034,38.6093375 19.9712035,38.7676317 19.6716992,38.9371069 C18.7841128,39.4392593 17.9471768,40.0319712 17.1826516,40.7070249 C16.4338909,41.3681659 15.7553185,42.1088475 15.1674447,42.9165924 C14.6143179,43.6766498 14.1424216,44.4952285 13.7613395,45.3545266 C13.4025733,46.1634521 13.1246209,47.0074948 12.9261397,47.8697097 C12.7462474,48.6512265 12.6314273,49.4472579 12.5754294,50.247132 C12.5557063,50.5287882 12.5432521,50.8109538 12.5376963,51.093235 C12.5325803,51.352506 12.5328812,51.6118464 12.541539,51.8710248 C12.5553591,52.2847472 12.5886476,52.6977983 12.6398074,53.1085576 C12.7583312,54.0603136 12.9721372,55.0000783 13.2705998,55.9114157 C14.000679,58.1406369 15.2438602,60.2115638 16.9323162,61.8464525 C17.2889295,62.191769 17.6648261,62.5172004 18.0581541,62.8200613 C18.9031228,63.4707157 19.8284887,64.0156709 20.8075839,64.4383752 C21.9182128,64.9178413 23.0944697,65.2382725 24.2920932,65.4052939 C24.7732724,65.4724034 25.257785,65.5150674 25.7432005,65.5348599 C25.9568907,65.543564 26.1706735,65.5471059 26.3845258,65.5478235 C26.4516353,65.5476151 26.5187216,65.5471985 26.585808,65.5465966 C26.7523433,65.5440039 26.9188092,65.5398833 27.0852056,65.5325913 C27.4145723,65.5181231 27.7434992,65.4932608 28.0712455,65.457449 C28.9702213,65.3591807 29.8604699,65.1780151 30.7235181,64.9071464 C31.6917101,64.6032901 32.6240902,64.186512 33.4932035,63.662391 C34.1703869,63.2540161 34.8084018,62.7813559 35.3976646,62.2540635 C35.8730796,61.8286508 36.3166876,61.3680281 36.7261042,60.8788393 C36.9955377,60.5568572 37.2502252,60.2225828 37.4899582,59.8779376 C37.6766102,59.6096384 37.8542339,59.3350658 38.022899,59.0550995 C39.09429,57.2768247 39.797331,55.295161 40.2248735,53.2687963 C40.2859874,52.9791767 40.3415686,52.6883766 40.3918486,52.3966736 C40.4560645,52.0242262 40.511692,51.6502972 40.559333,51.2753729 C40.6230859,50.7737762 40.6725094,50.2703738 40.7089463,49.7660454 C40.7554993,49.1216644 40.7796671,48.4760797 40.7873989,47.8301014 C40.7880934,47.7474125 40.7886258,47.6647236 40.7890193,47.5820578 C40.7904546,46.0370806 40.7887879,44.4921265 40.788811,42.9471493 C40.7888804,40.2037846 40.7906166,37.4604198 40.7929316,34.7170551 C40.7946451,33.0243183 40.7965514,31.3315814 40.7986253,29.6388395 L45.2232012,29.6388395 C45.5985886,29.6396729 45.9737907,29.6500206 46.3483678,29.6752532 C46.6354178,29.6945828 46.9219586,29.7220377 47.2072724,29.7591227 C47.4201292,29.786786 47.6323147,29.8197736 47.8434122,29.8588263 C48.0088595,29.8894295 48.1736355,29.9237135 48.3374392,29.9621411 C49.2631755,30.1793269 50.1733092,30.5291575 50.944733,31.094183 C51.0437189,31.1667095 51.1402279,31.2426157 51.2338664,31.3219248 C51.3802387,31.4458888 51.5195274,31.5781864 51.6506213,31.7181927 C51.8571121,31.9387351 52.0428613,32.1783756 52.2064103,32.4323454 C52.5240404,32.9256316 52.7563889,33.4699386 52.92304,34.0314454 C53.1364755,34.7505057 53.2455545,35.4981552 53.2912047,36.2457122 C53.3015061,36.4143309 53.3079879,36.5830654 53.3125251,36.7519156 C53.3137521,36.8104136 53.3147938,36.8688885 53.3156503,36.9273633 C53.3161469,36.9831094 53.3164771,37.0388555 53.3166573,37.0946015 L53.3166573,37.0946015 C53.3166534,37.0957793 53.3166495,37.0969571 53.3166457,37.0981349 L56.0634155,37.1063066 L53.3167152,37.1063066 L53.3167152,56.0805438 L58.8725218,56.0805438 L58.8725218,37.1063066 L56.0906777,37.1063066 L56.0906753,37.1063066 C57.0179536,37.1035827 57.945229,37.1008588 58.8724986,37.0981349 C58.8724965,37.0974087 58.8724944,37.0966824 58.8724923,37.0959561 C58.8728105,37.0103907 58.8735405,36.9248774 58.8748136,36.8393038 C58.8783554,36.6687637 58.8838649,36.4983393 58.893194,36.3279844 C58.9345153,35.5727188 59.0394275,34.8169439 59.2492749,34.0890638 C59.4170603,33.5071162 59.6542469,32.9425073 59.9827572,32.4323917 C60.1463294,32.1783756 60.3320785,31.938712 60.5385925,31.7181464 C60.6696864,31.5781401 60.8089751,31.4458656 60.9553011,31.3219017 C61.0489165,31.2426157 61.145356,31.1667326 61.2443188,31.0942525 C62.01565,30.5293427 62.9255985,30.1793269 63.8512422,29.9622337 C64.0150459,29.9238292 64.1798218,29.889499 64.3452691,29.8588957 C64.5563203,29.8198662 64.7684827,29.7868554 64.9813164,29.7591922 C65.2665608,29.7221303 65.553032,29.6946522 65.8400126,29.6753458 C66.1859079,29.6520345 66.5323356,29.6414785 66.8789716,29.6391173 C67.7767205,29.6370802 68.6744926,29.6389321 69.5722415,29.6389321 L69.5722415,24.0831254 L66.9585585,24.0831254 C66.501524,24.084144 66.0446978,24.0962047 65.5884735,24.1242153 C63.6900775,24.2408641 61.7895749,24.6177098 60.0491027,25.4018425 C59.7128838,25.5533308 59.3833319,25.7197272 59.0624609,25.9014715 C58.6822123,26.1168516 58.3141169,26.3537373 57.9615316,26.6119666 C57.5244053,26.9321199 57.1112848,27.2850526 56.7278647,27.6679171 C56.5065147,27.8889664 56.2952085,28.1199469 56.0945717,28.3598441 C55.9127065,28.1423697 55.7220672,27.9322198 55.523088,27.7301653 C55.1223755,27.3232719 54.6883512,26.9494587 54.2276591,26.612036 C53.8750043,26.3537373 53.5068163,26.1167822 53.1264751,25.9013789 C52.8056041,25.7196577 52.4760985,25.5532613 52.1399027,25.4017962 C50.5119125,24.6683834 48.7422723,24.2910747 46.967794,24.1500266 C46.4242277,24.1068302 45.8794114,24.0869682 45.3342016,24.0832643 C43.8248837,24.0798972 42.3155536,24.0813053 40.8062291,24.0823237 L40.8062291,24.0823237 C40.8104382,21.310799 40.8149132,18.5392627 40.8193448,15.7677265 C40.8224782,13.8139815 40.825991,11.8602365 40.8287398,9.90649146 C41.1516976,9.90356899 41.474647,9.89971114 41.7975834,9.89461384 C42.7900126,9.87894184 43.7824185,9.85174154 44.7737596,9.80155408 C45.4490911,9.76738587 46.1239132,9.72254588 46.797439,9.66240428 C47.3001238,9.61751799 47.8020446,9.56408965 48.3026228,9.49980433 C48.6723386,9.45232534 49.0413367,9.39892015 49.4091774,9.33854705 C49.6821759,9.29373021 49.9545493,9.24504745 50.2260894,9.19205894 C52.083002,8.82970461 53.9176682,8.2623873 55.5735301,7.33320179 C55.8356484,7.18608866 56.092836,7.03017883 56.3441205,6.86524082 C56.6731863,6.64923569 56.9920896,6.41774375 57.2986775,6.17083444 C57.7291599,5.82415211 58.1351505,5.44707488 58.5115333,5.04224177 C58.8743274,4.6520158 59.2094352,4.23620997 59.5141943,3.79915318 C59.6764702,3.56643433 59.8292086,3.32753464 59.9749096,3.08412087 L55.2080275,0.230403931 C55.1284405,0.363372904 55.0455896,0.494142703 54.9569282,0.621278078 C54.8005554,0.845547473 54.628742,1.05900619 54.4425762,1.25924673 C54.3130102,1.39860488 54.176592,1.5315507 54.0341781,1.65771381 C53.2449295,2.35688892 52.2849556,2.83431791 51.2946099,3.17819919 C51.1364546,3.23310908 50.977165,3.28473178 50.8169725,3.33341454 C50.6072871,3.39712112 50.396097,3.45580433 50.1837958,3.51013549 C49.8920465,3.58481479 49.5982369,3.65127613 49.3030847,3.71104735 C48.9154283,3.78956941 48.5254569,3.85658633 48.1342356,3.91469081 C47.6898868,3.98068916 47.2438713,4.03522866 46.7970224,4.08122611 C46.1484514,4.14796524 45.4980748,4.19674059 44.8471657,4.2338256 C43.9932614,4.28246206 43.1383153,4.31100502 42.2832535,4.32899194 C41.1001214,4.35387732 39.9166883,4.35795158 38.7333477,4.35961832 C36.7908757,4.36082208 34.8484036,4.35971092 32.9059316,4.35906274 C29.9347325,4.3575349 26.9635566,4.35364583 23.9923575,4.35193279 C22.2370235,4.35119202 20.4816664,4.35070589 18.7263324,4.35054384 C17.8849518,4.35047439 17.043548,4.34846041 16.2021674,4.35068274 C15.911946,4.35295136 15.6219329,4.36054429 15.332105,4.37586906 C14.7907842,4.40448146 14.2507135,4.45744682 13.7143004,4.5356911 C12.1986763,4.75669646 10.7119656,5.18090544 9.31639327,5.81368867 C8.52758447,6.17134372 7.76866128,6.59495083 7.05159184,7.08080612 C6.33183709,7.5684902 5.65456111,8.1187234 5.03027363,8.72386649 C4.35181705,9.38151195 3.73637257,10.1037205 3.19289893,10.8766258 C2.69169572,11.5894127 2.25181473,12.3449329 1.87577922,13.1309175 C1.23338908,14.4735939 0.779155584,15.9025011 0.498795691,17.3634468 C0.391476026,17.9226618 0.309388983,18.4866688 0.250983565,19.0530602 C0.232325315,19.2337859 0.216097729,19.4147432 0.202231362,19.5959088 C0.197624672,19.6559115 0.181072998,19.8832366 0.180285926,19.906733 C0.179498853,19.9299285 0.1810267,20.1503551 0.181674877,20.2097328 C0.183943498,20.420159 0.1896382,20.6305389 0.198758983,20.8407798 C0.230288185,21.5661598 0.302814611,22.2897805 0.417565168,23.0067342 C0.698295448,24.7606098 1.23304184,26.4748539 2.02238307,28.0669398 C2.56039349,29.1520582 3.21581663,30.179188 3.97980949,31.1192536 C4.86484949,32.2082612 5.89512754,33.1788143 7.04043393,33.9900778 C7.84947512,34.5631361 8.71481515,35.0563066 9.62034219,35.4599591 C10.8957008,36.0284801 12.2486554,36.4175718 13.6293891,36.623808 C14.15226,36.7018902 14.6789736,36.7540222 15.2069604,36.780991 C15.4936863,36.7956213 15.7805974,36.8019642 16.0676706,36.8028438 C16.1393868,36.8026355 16.2111262,36.8021956 16.2828424,36.8015243 C16.4606745,36.7988159 16.638414,36.7944638 16.8161072,36.7867783 C17.2006385,36.770134 17.5846142,36.7403641 17.9670157,36.6968205 C18.9736816,36.5821626 19.9697683,36.3710651 20.9329599,36.0559814 C21.9807156,35.7132575 22.9878908,35.2474495 23.9240905,34.6650389 C24.6502113,34.2133518 25.3328347,33.6923792 25.9610807,33.1122835 C26.4687888,32.6435123 26.9408703,32.1364292 27.3740381,31.5980947 C27.7284754,31.157635 28.0568467,30.6962947 28.3584807,30.2181712 C28.9676286,29.2525952 29.4669336,28.2192383 29.8600995,27.1478241 C30.217986,26.1725717 30.4882529,25.1658364 30.6781457,24.1447023 C30.8430837,23.2577178 30.9474635,22.3597374 30.9966092,21.4589791 C31.0188324,21.051669 31.0289255,20.6439654 31.0298514,20.2360766 L25.4740448,20.2236455 C25.4732346,20.5853748 25.4631184,20.9468957 25.4400618,21.3079306 C25.4210331,21.6058607 25.393856,21.9033047 25.358021,22.199707 C25.3260983,22.4636541 25.2873234,22.726791 25.2413259,22.9886547 C24.9709434,24.5276363 24.4483734,26.0386305 23.5951867,27.3544538 C23.259153,27.872718 22.8722837,28.3583881 22.4358982,28.7957921 C21.9862946,29.2464607 21.4844663,29.6446731 20.9414557,29.9771187 C20.275083,30.3851232 19.5495641,30.6918732 18.796405,30.898364 C18.0954706,31.0905486 17.3724749,31.196896 16.6469792,31.2328236 C15.5353317,31.2878955 14.4138459,31.1855992 13.3372694,30.8989659 C12.6772165,30.7232404 12.0355671,30.4787154 11.4272294,30.1679606 C10.7968074,29.8459553 10.2030074,29.4532987 9.65872355,29.0007551 C8.77919306,28.2694258 8.03272414,27.3841774 7.44207245,26.4055452 C6.96934275,25.6222691 6.5958305,24.780356 6.32162829,23.9078398 C6.07365412,23.11873 5.90663269,22.304758 5.81662862,21.4826607 C5.77361741,21.0897494 5.74924131,20.6953335 5.73961125,20.3002462 C5.73829174,20.2300346 5.73725003,20.1598463 5.73669445,20.0896579 C5.76352437,19.7270027 5.80167424,19.3653428 5.85447755,19.0055349 C5.96969109,18.2202447 6.15143542,17.4439365 6.41068324,16.6934859 C6.67138947,15.9387759 7.01082611,15.2107106 7.43297481,14.5326012 C7.89727821,13.7868268 8.46130833,13.1037172 9.11110621,12.5121858 C9.57323358,12.0914955 10.0775388,11.7176129 10.6134426,11.39614 C11.3169929,10.9741302 12.0737633,10.6432356 12.8580811,10.4033868 C13.5869103,10.1805295 14.3389351,10.0360091 15.0973721,9.96318176 C15.4743568,9.92697642 15.8525914,9.90940618 16.2312428,9.90644308 C17.0627619,9.90424391 17.8942809,9.90628104 18.7258,9.90635049 C20.4803932,9.90651253 22.2349864,9.90699866 23.9896027,9.90773944 C26.565321,9.90922099 29.1410392,9.91246187 31.7167575,9.91426751 C32.9020356,9.91486539 34.087306,9.91522688 35.2725776,9.91544827 Z M155.508392,40.0182993 L155.490708,40.0182438 C155.490199,40.1754962 155.487999,40.3326793 155.482235,40.4898392 C155.470198,40.819067 155.445382,41.147855 155.40744,41.4751152 C155.29725,42.4255748 155.07687,43.3630709 154.748846,44.2620004 C154.335378,45.3951303 153.751763,46.465549 153.019786,47.424435 C152.501059,48.1039796 151.908231,48.7271327 151.253364,49.2767641 C150.484069,49.9224414 149.629193,50.4661465 148.71517,50.8829015 C147.922264,51.2444456 147.085837,51.5097353 146.229062,51.6692333 C145.204965,51.8598669 144.152857,51.9000539 143.117024,51.7904425 C141.948337,51.6667563 140.802799,51.3484549 139.736686,50.8543122 C138.490495,50.2766935 137.358083,49.4627447 136.401697,48.4778391 C135.32144,47.3653582 134.467836,46.0383538 133.893343,44.5985434 C133.595829,43.8529078 133.373134,43.0777339 133.227896,42.2882306 C133.090783,41.5427803 133.023026,40.7848525 133.023026,40.026971 C133.023026,39.1209115 133.120067,38.2149215 133.316048,37.3302288 C133.560689,36.2260585 133.959202,35.1565426 134.499736,34.1630254 C135.001865,33.2400671 135.625991,32.3835237 136.353547,31.6253182 C136.988645,30.9634364 137.702427,30.3769053 138.477532,29.8861192 C139.325672,29.349081 140.246801,28.9277194 141.209576,28.6427991 C142.289671,28.323155 143.41882,28.1771762 144.544681,28.2068303 C145.153991,28.2228959 145.761842,28.2903526 146.359647,28.4093626 C147.010463,28.5389055 147.648965,28.7294697 148.264594,28.9771198 C149.129494,29.3250522 149.948328,29.7852813 150.6982,30.3389406 C150.955526,30.5289492 151.204773,30.729861 151.445201,30.9408659 C151.58317,31.0619594 151.71776,31.1866872 151.850196,31.3138458 C151.89962,31.3618572 151.948719,31.4101696 151.997587,31.4587829 C152.048168,31.5097574 152.098402,31.5610329 152.148404,31.6125861 L156.137033,27.7450502 C155.949502,27.5516387 155.758521,27.361769 155.56254,27.1769458 C155.216297,26.8503801 154.85642,26.5382596 154.484019,26.2418573 C153.335286,25.3275798 152.067081,24.5637027 150.719057,23.9815931 C149.731767,23.5552544 148.702531,23.2265358 147.650608,23.0028914 C146.712742,22.8034843 145.757351,22.687692 144.79909,22.6561397 C143.829417,22.6242169 142.856896,22.6779694 141.89683,22.8179525 C140.993826,22.9496483 140.102073,23.1576901 139.233978,23.4390454 C137.631081,23.9585596 136.111892,24.7284555 134.740256,25.7066479 C133.406145,26.6580798 132.213059,27.8045899 131.203522,29.0949955 C130.159563,30.4294076 129.312789,31.9164193 128.694427,33.4936896 C128.214753,34.7172172 127.872561,35.9940573 127.674057,37.2931438 C127.624602,37.6168057 127.584012,37.9418119 127.55228,38.2676803 C127.338729,37.5936734 127.076107,36.9353503 126.762141,36.3015712 C126.402264,35.57508 125.975647,34.8820394 125.488958,34.2336073 C125.127484,33.7520346 124.73323,33.2952779 124.311614,32.8654205 C123.987016,32.5344565 123.646259,32.2194422 123.292239,31.9201926 C122.060077,30.8787566 120.673069,30.036126 119.230875,29.3197047 C118.313542,28.8640128 117.372457,28.4577908 116.4226,28.0750883 C115.943388,27.882024 115.46163,27.695372 114.979294,27.5102711 C114.358965,27.2733391 113.73764,27.0389998 113.117473,26.8016742 C112.567356,26.5900212 112.018188,26.3759606 111.473603,26.150418 C111.064603,25.9810353 110.658103,25.805495 110.256279,25.6196995 C109.972655,25.4885593 109.691369,25.3523032 109.413602,25.2091254 C108.75473,24.8694573 108.112201,24.4910837 107.521549,24.0417347 C107.009535,23.6522032 106.53669,23.2063497 106.151441,22.6894514 C106.022014,22.5158092 105.903629,22.3345742 105.795221,22.1471352 C105.771262,22.1050268 105.747742,22.0627101 105.724639,22.0201155 C105.700171,21.9742801 105.676304,21.9281669 105.652784,21.8818223 L100.698347,24.3958942 C100.797958,24.5921994 100.902407,24.7858655 101.013246,24.9760593 C101.138405,25.1908116 101.270931,25.401241 101.410416,25.6069521 L101.410416,25.6069521 C101.423374,25.6506086 101.436102,25.694335 101.448543,25.738154 C101.522806,25.9996241 101.588665,26.2634786 101.6467,26.529023 C101.866618,27.53555 101.973636,28.565041 101.995489,29.5944625 C102.022666,30.8756315 101.918495,32.1583747 101.718903,33.4235244 C101.46403,35.0391299 101.054428,36.6299656 100.522506,38.1761235 C100.204945,39.0991745 99.8431929,40.0072479 99.4364847,40.8946723 C99.07795,41.6769761 98.6848303,42.4440015 98.2500885,43.1867897 C98.077627,43.4814558 97.8984985,43.772256 97.7116614,44.0580097 C97.6175367,44.2019514 97.5209583,44.3442032 97.4240095,44.4862235 C97.322778,44.6344709 97.2208521,44.7822785 97.1180003,44.9294148 C96.3499331,46.028145 95.524757,47.093008 94.5701536,48.0371941 C94.0596676,48.5421012 93.5134624,49.0113354 92.9301953,49.4304284 C92.3348674,49.8582255 91.7016444,50.2328026 91.0388598,50.5462196 C90.2186838,50.934038 89.3556356,51.2271531 88.4725632,51.4337597 C87.6020146,51.6374494 86.7131319,51.7579641 85.8211471,51.8134296 C85.5351388,51.8312313 85.2487138,51.8423198 84.9621963,51.8472969 C84.7470245,51.8510471 84.5317138,51.8522508 84.3165421,51.8465793 C84.0319227,51.8390558 83.7476043,51.8203744 83.4644897,51.7904193 C82.7960567,51.7196754 82.1344527,51.5858036 81.4911598,51.3908874 C80.8359218,51.1923599 80.2000597,50.9307045 79.5940833,50.612079 C78.519544,50.0470766 77.5413979,49.303594 76.7011285,48.4279294 C75.9080371,47.6014569 75.2381457,46.6580346 74.714835,45.639308 C74.2189098,44.6738708 73.854935,43.6415557 73.63305,42.5791928 C73.178122,40.4010388 73.3151421,38.0999395 74.0403832,35.9954694 C74.4569067,34.7868268 75.0658231,33.6451317 75.8416452,32.6288126 C76.5270928,31.7309016 77.3420139,30.9316294 78.2579349,30.269956 C79.2941392,29.5213805 80.4584279,28.9516094 81.6892243,28.6045566 C82.4751163,28.3829726 83.2860557,28.2523417 84.1016713,28.2146316 C84.6168334,28.1908342 85.1337781,28.2031728 85.6466485,28.2582447 C85.8417036,28.2791947 86.0361337,28.3062561 86.2293832,28.3400308 C86.3689497,28.3644301 86.5078911,28.3923248 86.6459761,28.4239929 C87.4442992,28.6071031 88.2269966,28.9187607 88.8771417,29.4251724 C88.9773314,29.5032315 89.0740951,29.5857121 89.1668539,29.6724521 C89.4567281,29.9434597 89.7054893,30.2562517 89.908855,30.5968226 C90.1282631,30.9642235 90.2952614,31.3613479 90.4210772,31.769908 C90.4765196,31.9499162 90.5240911,32.1323318 90.5648337,32.316229 C90.6055532,32.499941 90.6395593,32.6846947 90.6590509,32.8719486 C90.7109514,33.3703739 90.676899,33.8771329 90.5696719,34.3662522 C90.4442264,34.9385698 90.2167393,35.4871594 89.9036696,35.982228 C89.6852338,36.3276372 89.4256619,36.6464247 89.134908,36.9334747 C89.0295792,37.0374609 88.9202224,37.1373034 88.8073006,37.232979 C87.9603642,37.9505346 86.9295537,38.4223152 85.8674687,38.723 C85.6674133,38.7796461 85.4656912,38.830366 85.2627654,38.8757153 C85.0176617,38.9304863 84.7708219,38.977456 84.5228709,39.0173652 C84.2247092,39.0653998 83.9249272,39.1033182 83.6243349,39.1323704 C83.2294559,39.1705434 82.8331417,39.1934843 82.4365497,39.2035542 C81.9614356,39.2156381 81.4859049,39.2092489 81.0111612,39.1876044 C80.6115367,39.169386 80.2124677,39.1403569 79.8143016,39.1020218 C79.603505,39.0816968 79.3930557,39.058293 79.1827453,39.0334307 C79.0964451,39.0228053 79.0101449,39.0119946 78.923891,39.0009756 C78.8342573,38.9891 78.7446699,38.976993 78.6551057,38.9647008 L77.8999789,44.4689542 C78.1056364,44.497173 78.3114096,44.5244196 78.5175069,44.5492819 C78.9707912,44.6039371 79.4252099,44.649217 79.8804388,44.6840102 C80.4098609,44.7244518 80.9404173,44.750703 81.4712978,44.7607729 C81.8851591,44.7686436 82.2992518,44.7666528 82.7129974,44.7537819 C83.0230346,44.7441286 83.3328865,44.728364 83.6422755,44.7060019 C85.4621263,44.5745145 87.2763518,44.2138964 88.9699468,43.5240041 C89.2031055,43.4290229 89.4337641,43.3278609 89.6614596,43.2204024 C89.946866,43.0856741 90.2275963,42.9409916 90.502655,42.7861698 C90.8872094,42.5697248 91.2606754,42.3334178 91.6200666,42.077272 C92.1489331,41.7003568 92.6471964,41.2803378 93.1055504,40.820155 C93.7533575,40.1697089 94.3203738,39.4390278 94.7849782,38.6470938 C95.4306323,37.5465811 95.8763469,36.3304845 96.0908011,35.0725573 C96.251225,34.1314962 96.2831014,33.1678647 96.1766383,32.218933 C96.1381412,31.8758619 96.0799209,31.5358002 96.0074408,31.1983313 C95.9538504,30.9487135 95.8930143,30.7006467 95.8245853,30.4546866 C95.5409151,29.4353581 95.1238361,28.4520035 94.5606162,27.5551342 C94.2497919,27.0602044 93.8953546,26.592637 93.5014016,26.1608814 C93.085943,25.7055367 92.6268714,25.2904485 92.1331453,24.9214967 C91.8564662,24.7147281 91.5690226,24.5224509 91.2727129,24.344966 C91.0586986,24.2167889 90.8400776,24.0963205 90.6175676,23.9835608 C89.1478484,23.238828 87.5202517,22.8365645 85.8829786,22.7001694 C85.5814372,22.6750526 85.279155,22.6589639 84.9766414,22.651695 C84.5995178,22.6425974 84.2220008,22.6473198 83.8451782,22.664728 C83.2740181,22.6911181 82.704247,22.7474401 82.1390131,22.8336477 C81.134639,22.9868491 80.1448952,23.2346612 79.1867269,23.5725237 C78.2448788,23.9046452 77.3338885,24.3236224 76.4678772,24.8209597 C74.9283169,25.7051432 73.5336474,26.8365832 72.3433389,28.1533325 C71.2360898,29.3782027 70.3063487,30.7619458 69.5870107,32.2480315 C68.9265873,33.6123987 68.4438571,35.0617466 68.1518995,36.5491055 C67.6681045,39.0136845 67.7052821,41.5804209 68.263224,44.0294204 C68.652524,45.7382014 69.2959327,47.3880676 70.1697685,48.9073955 C71.0408495,50.4219547 72.1394871,51.8050959 73.4224618,52.9914458 C74.8294004,54.2924305 76.4562563,55.3539137 78.2198082,56.1048736 C79.5383169,56.666311 80.9302779,57.052972 82.3496939,57.2504809 C82.8457117,57.3195118 83.3449241,57.3655787 83.8451782,57.3886816 C84.097759,57.4003719 84.3504788,57.4053722 84.6033143,57.4062055 C84.7175093,57.4059509 84.8316811,57.4052333 84.9458529,57.4039832 C85.4972436,57.3956263 86.048125,57.3720373 86.5978257,57.3277529 C87.6218767,57.2452492 88.6409042,57.09471 89.642593,56.8656255 C90.651458,56.6349207 91.6421741,56.324189 92.5989534,55.9293332 C93.5330466,55.5438528 94.4337586,55.0782531 95.2880564,54.5385528 C96.0130661,54.080546 96.7042084,53.5696432 97.3578028,53.0145719 C97.9859562,52.4811218 98.5791774,51.9071607 99.1392027,51.3027352 C99.6276739,50.7755355 100.09082,50.2252097 100.533224,49.6588878 C100.927293,49.1544206 101.304764,48.6371981 101.671516,48.1125911 C101.786035,47.9487642 101.899513,47.7842197 102.012226,47.6191428 C102.130102,47.4465193 102.24726,47.2734559 102.36164,47.0985175 C102.598734,46.7359316 102.826175,46.3670492 103.045004,45.9931666 C103.573107,45.0908573 104.051624,44.1597041 104.487153,43.2093834 C105.010139,42.0682207 105.470994,40.8984456 105.869576,39.7081603 C106.204175,38.7089485 106.494813,37.6948749 106.737208,36.6693424 C106.962357,35.7167762 107.14593,34.7541633 107.282071,33.7847908 C107.435544,32.6920306 107.529068,31.5900007 107.550682,30.48656 C107.635775,30.5273443 107.721046,30.5676948 107.806469,30.6076333 C108.041781,30.7176614 108.278528,30.824657 108.516339,30.9291524 C108.831377,31.0675846 109.148336,31.2016185 109.466591,31.3324809 C109.861053,31.494641 110.257576,31.6516156 110.654955,31.8064375 C110.890752,31.8977842 111.126735,31.9885753 111.362903,32.0789498 C112.134443,32.3729908 112.907487,32.6631428 113.676804,32.9630175 C114.442695,33.2615495 115.20442,33.5721423 115.95274,33.9125743 C116.580986,34.1983974 117.200112,34.505703 117.798958,34.849237 C118.360395,35.1712886 118.904448,35.525587 119.41373,35.9255125 C119.776524,36.2104096 120.121308,36.5186875 120.439193,36.8531007 C120.726637,37.1554987 120.991626,37.4793096 121.228372,37.8229131 C121.47167,38.1760309 121.684643,38.5497515 121.865693,38.9384496 C122.042159,39.3174019 122.188184,39.7102206 122.306685,40.1110257 C122.567762,40.9941212 122.696008,41.9130516 122.738487,42.8316117 C122.746566,43.0064575 122.751312,43.1814654 122.752538,43.3564965 C122.761127,44.5973396 122.589707,45.8521417 122.132418,47.011083 C122.062137,47.1891697 121.985258,47.3646174 121.901643,47.5368243 C121.785041,47.776974 121.655313,48.0107578 121.512714,48.2364624 C121.247656,48.6559953 120.93785,49.0467768 120.590381,49.4010521 C120.244948,49.7532671 119.862871,50.0689526 119.45475,50.3459559 C118.360928,51.0883274 117.092121,51.5503853 115.794678,51.7796318 C115.56682,51.8198882 115.337689,51.8529916 115.107795,51.8791733 C114.830491,51.9107257 114.552029,51.9322081 114.273243,51.9447087 C113.51932,51.9784602 112.760304,51.9465838 112.014391,51.8285692 C111.872394,51.8061145 111.730906,51.780442 111.590113,51.7513203 C110.701901,51.5676778 109.829616,51.2453715 109.087476,50.7156948 C108.9643,50.6277973 108.845035,50.5344366 108.730377,50.4356822 C108.550878,50.2810918 108.382769,50.1133759 108.227808,49.934178 C107.87763,49.5292755 107.597895,49.0674953 107.381867,48.5784223 C107.249569,48.278918 107.141879,47.9696679 107.051088,47.6552093 C107.036527,47.6034014 107.02229,47.5515472 107.008378,47.4995541 C106.993701,47.4431627 106.979464,47.3867018 106.965529,47.3301251 L101.57135,48.6604862 C101.670891,49.0640924 101.78585,49.4635549 101.921203,49.8566514 C102.170057,50.5793924 102.484261,51.2800722 102.867936,51.9414447 C103.267213,52.6297397 103.741517,53.2742827 104.284111,53.8565081 C104.677948,54.2790966 105.107227,54.6684892 105.565558,55.0200792 C105.928861,55.2987723 106.310314,55.5537144 106.706026,55.7840257 C107.379969,56.1762657 108.094723,56.4965811 108.832395,56.7485601 C109.565206,56.9988955 110.320356,57.182075 111.084534,57.3062473 C111.70065,57.4063676 112.322831,57.4682454 112.946331,57.4960013 C113.213797,57.5078999 113.481356,57.5126224 113.749053,57.5130159 C113.823709,57.5126455 113.898388,57.5120436 113.973044,57.5112103 C114.119903,57.5086639 114.266692,57.5051915 114.413481,57.4994968 C114.749422,57.4864638 115.085062,57.4641943 115.419753,57.4323873 C116.134161,57.3644675 116.844424,57.2518004 117.544247,57.0927654 C118.589873,56.855139 119.612651,56.5137809 120.586399,56.0641078 C121.70425,55.547904 122.756566,54.8881056 123.696169,54.0914955 C124.254643,53.6180251 124.772745,53.0969598 125.24147,52.5344576 C125.686791,52.0000584 126.087319,51.4285511 126.438191,50.8279221 C127.068706,49.7485215 127.535532,48.5776352 127.841356,47.3662379 C128.021999,46.6507112 128.146473,45.9229799 128.221225,45.1898758 L128.221225,45.1898758 C128.748952,46.9468972 129.550805,48.6202407 130.593981,50.1297656 C131.31318,51.1704607 132.146065,52.1325876 133.074926,52.991469 C134.052586,53.8954913 135.136339,54.6846936 136.299285,55.3335656 C137.050986,55.7530058 137.835442,56.1137397 138.643534,56.4103735 C139.5295,56.7356197 140.443708,56.9835938 141.372662,57.150268 C142.003895,57.263537 142.641863,57.3393044 143.282054,57.3773153 C143.606861,57.3966218 143.931945,57.4051638 144.257307,57.4062287 C144.329879,57.4059972 144.402452,57.4055111 144.475002,57.4047934 C144.655751,57.4018303 144.836384,57.3970616 145.016971,57.3887279 C145.339346,57.3738198 145.661305,57.3493743 145.982246,57.3154144 C147.067457,57.2005481 148.140792,56.976024 149.181024,56.646148 C150.592176,56.1986741 151.940385,55.5575803 153.181182,54.7504142 C154.411006,53.9503549 155.534113,52.9882281 156.51793,51.9000539 C157.16443,51.1849758 157.750115,50.4158011 158.268859,49.6038227 C159.107306,50.9233068 160.122389,52.1301077 161.283169,53.1778431 C162.607372,54.3730823 164.119408,55.3592149 165.752144,56.0787844 C167.130354,56.686173 168.591693,57.1022335 170.083497,57.309766 C170.580834,57.3789589 171.081343,57.4251416 171.58294,57.4483371 C171.836747,57.4600506 172.090671,57.4650508 172.344757,57.4658842 C172.417538,57.4656527 172.490319,57.4651665 172.563077,57.4644489 C172.816468,57.460282 173.06965,57.4519252 173.322625,57.4369014 C173.858251,57.4050944 174.392303,57.3469204 174.922188,57.2625648 C176.372415,57.0317442 177.789887,56.6030674 179.125919,55.9939195 C180.779929,55.2398576 182.30523,54.2112695 183.63191,52.9695235 C184.810436,51.8666033 185.831547,50.5972867 186.660982,49.2127797 C187.544124,47.7385464 188.208506,46.1349091 188.630284,44.4690468 C189.318973,41.7492016 189.360873,38.8681686 188.754132,36.1290171 C188.366152,34.3781278 187.712882,32.6871949 186.818628,31.1325644 C185.910948,29.5545996 184.756961,28.1189791 183.40528,26.8990629 C182.694368,26.2572515 181.929287,25.6752344 181.119991,25.1627807 C180.247035,24.6100937 179.322919,24.1384983 178.362459,23.7579024 C177.386489,23.3712414 176.373388,23.0788208 175.34142,22.8867519 C174.317971,22.6962572 173.276512,22.6045401 172.235539,22.6114154 C171.231928,22.6180129 170.229013,22.7164202 169.243505,22.9064982 C168.179429,23.111739 167.136257,23.4237669 166.13392,23.8356374 C165.24226,24.2020197 164.383124,24.6470861 163.568689,25.1627807 C162.70152,25.7118796 161.885094,26.3407506 161.131541,27.0375877 C159.946766,28.1332159 158.91827,29.3960276 158.080964,30.7753492 C157.189789,32.2434017 156.516125,33.8418072 156.0846,35.504012 C155.702344,36.976402 155.510163,38.49724 155.508392,40.0182994 L155.508392,40.0182993 Z M172.344757,51.9100544 C172.513236,51.9094988 172.6816,51.9061884 172.849918,51.8984103 C173.204541,51.8820207 173.558399,51.8482692 173.909688,51.7970168 C174.869292,51.6570337 175.808686,51.3859334 176.696018,50.9948047 C177.76639,50.5230241 178.75831,49.8783885 179.631035,49.0999737 C180.536863,48.2919973 181.313518,47.3415146 181.931139,46.2967451 C182.543667,45.260402 182.998317,44.1323186 183.279811,42.9620111 C183.509914,42.0054864 183.624039,41.0219002 183.624039,40.0382447 C183.624039,38.9074297 183.472875,37.7769388 183.168926,36.6875145 C182.846921,35.5334809 182.354306,34.4275281 181.708444,33.4182696 C181.14314,32.5349658 180.461397,31.7261098 179.682889,31.0233465 C178.729374,30.162891 177.631732,29.4628362 176.443345,28.9745271 C175.80408,28.7118532 175.139698,28.5105478 174.461889,28.3752407 C173.812693,28.2456052 173.151668,28.1765975 172.48974,28.1678471 C171.75429,28.1581244 171.01796,28.2224792 170.295752,28.361791 C169.571576,28.5014733 168.862261,28.7163673 168.181883,29.0009171 C166.996552,29.4966571 165.902729,30.2034946 164.954585,31.0697838 C164.179804,31.7776862 163.502343,32.5908248 162.941924,33.4779945 C162.314604,34.4710718 161.835022,35.5562134 161.519406,36.6875145 C161.21548,37.7769388 161.064409,38.9074297 161.064409,40.0382447 C161.064409,41.0219002 161.178442,42.0054864 161.408498,42.9620111 C161.701081,44.1784318 162.18101,45.3489014 162.830252,46.4185099 C163.459286,47.4547836 164.24652,48.3951964 165.161099,49.1912741 C166.04306,49.9589477 167.042642,50.5911985 168.118802,51.0493905 C168.925667,51.3929477 169.774201,51.6379587 170.640305,51.775789 C170.966546,51.8277127 171.295172,51.8646125 171.624817,51.8863727 C171.792162,51.8974149 171.959647,51.9040356 172.127316,51.9079015 C172.199796,51.9091052 172.272253,51.9098229 172.344757,51.9100544 Z" id="Fill-1"></path>
                </g>
            </g>
        </g>
    </g>
</svg>