<?xml version="1.0" encoding="UTF-8" standalone="no"?>
<svg width="96px" height="33px" viewBox="0 0 96 33" version="1.1" xmlns="http://www.w3.org/2000/svg" xmlns:xlink="http://www.w3.org/1999/xlink" xmlns:sketch="http://www.bohemiancoding.com/sketch/ns">
    <!-- Generator: bin/sketchtool 1.4 (305) - http://www.bohemiancoding.com/sketch -->
    <title>wordmark-xs</title>
    <desc>Created with bin/sketchtool.</desc>
    <defs></defs>
    <g id="index" stroke="none" stroke-width="1" fill="none" fill-rule="evenodd" sketch:type="MSPage">
        <g id="xs/main" sketch:type="MSArtboardGroup" transform="translate(-112.000000, -12.000000)" fill="#FFC600">
            <g id="nav" sketch:type="MSLayerGroup">
                <g id="wordmark-xs" transform="translate(112.500000, 12.000000)" sketch:type="MSShapeGroup">
                    <path d="M17.6362888,4.95772413 C17.6289539,10.015634 17.6189754,15.0735439 17.6167568,20.1314538 C17.6166295,20.5787888 17.6165138,21.0261123 17.6165022,21.4734473 C17.6164906,22.2434243 17.617324,23.0133896 17.6166064,23.7833665 C17.6158309,23.9529344 17.6126131,24.1224675 17.6057494,24.2919196 C17.5856906,24.7868262 17.5373667,25.2811194 17.4509507,25.7689887 C17.3721393,26.2139741 17.2615903,26.6541907 17.1082732,27.0795572 C17.0796839,27.1588895 17.0496131,27.2376777 17.017945,27.3158294 C16.7877263,27.8840264 16.4715315,28.423854 16.0440237,28.8665708 C15.8385283,29.0793698 15.6081822,29.2681052 15.3571061,29.424721 C15.1917861,29.5278391 15.0178431,29.6169982 14.8378002,29.6915039 C14.659019,29.7654772 14.474381,29.8250169 14.2864558,29.870887 C13.9061377,29.9637269 13.5133306,30.0007887 13.1222829,29.9955223 C12.8223388,29.9914943 12.5224062,29.961111 12.2289092,29.8984461 C11.9460144,29.8380499 11.669532,29.7473629 11.4073211,29.6249847 C11.1267297,29.4940297 10.8634771,29.3270198 10.6247047,29.1299392 C10.3774134,28.9258096 10.1567669,28.6901971 9.96519574,28.4332295 C9.67311078,28.0414178 9.44759133,27.6006803 9.290906,27.1381594 C9.17475492,26.7952503 9.09556153,26.4388338 9.06207622,26.0781693 C9.05353417,25.9860818 9.04804781,25.893705 9.04597595,25.8012355 C9.04405457,25.7152941 9.04509628,25.6292601 9.0476427,25.5433419 C9.05253875,25.3783344 9.06448373,25.2135006 9.08443834,25.0496275 C9.12293545,24.7336294 9.19152651,24.4209879 9.29554742,24.1199674 C9.4036773,23.807106 9.55023485,23.5078217 9.73320609,23.2318948 C9.99049781,22.8438796 10.3177232,22.5051259 10.6885965,22.2244651 C10.8371333,22.1120757 10.9925917,22.0088535 11.1535596,21.915134 C11.2184815,21.8773429 11.2843873,21.8413112 11.3509528,21.8064832 C11.374646,21.794272 11.3983971,21.7821997 11.4222292,21.7702547 C11.446478,21.758275 11.4707846,21.7464573 11.4951723,21.734767 L10.2934745,19.2302325 C10.1383517,19.3046688 9.98560175,19.3838158 9.83584961,19.4685535 C9.39205641,19.7196296 8.97358842,20.0159856 8.59132578,20.3535124 C8.21694543,20.6840829 7.87765926,21.0544238 7.58372237,21.4582962 C7.30715894,21.8383249 7.07121078,22.2476143 6.88066976,22.6772633 C6.70128665,23.081726 6.56231047,23.5037474 6.46306987,23.9348549 C6.37312368,24.3256133 6.31571367,24.7236289 6.28771472,25.123566 C6.27785317,25.2643941 6.27162603,25.4054769 6.26884813,25.5466175 C6.26629014,25.676253 6.26644061,25.8059232 6.27076951,25.9355124 C6.27767955,26.1423736 6.29432382,26.3488991 6.31990368,26.5542788 C6.37916561,27.0301568 6.48606859,27.5000391 6.63529988,27.9557079 C7.00033952,29.0703184 7.62193011,30.1057819 8.46615808,30.9232262 C8.64446475,31.0958845 8.83241306,31.2586002 9.02907704,31.4100307 C9.45156141,31.7353579 9.91424436,32.0078355 10.4037919,32.2191876 C10.9591064,32.4589207 11.5472348,32.6191362 12.1460466,32.7026469 C12.3866362,32.7362017 12.6288925,32.7575337 12.8716002,32.76743 C12.9784453,32.771782 13.0853367,32.7735529 13.1922629,32.7739117 C13.2258176,32.7738076 13.2593608,32.7735992 13.292904,32.7732983 C13.3761717,32.7720019 13.4594046,32.7699417 13.5426028,32.7662957 C13.7072862,32.7590615 13.8717496,32.7466304 14.0356228,32.7287245 C14.4851107,32.6795903 14.9302349,32.5890075 15.3617591,32.4535732 C15.845855,32.301645 16.3120451,32.093256 16.7466018,31.8311955 C17.0851934,31.6270081 17.4042009,31.3906779 17.6988323,31.1270318 C17.9365398,30.9143254 18.1583438,30.684014 18.3630521,30.4394197 C18.4977689,30.2784286 18.6251126,30.1112914 18.7449791,29.9389688 C18.8383051,29.8048192 18.927117,29.6675329 19.0114495,29.5275497 C19.547145,28.6384123 19.8986655,27.6475805 20.1124367,26.6343982 C20.1429937,26.4895884 20.1707843,26.3441883 20.1959243,26.1983368 C20.2280322,26.0121131 20.255846,25.8251486 20.2796665,25.6376864 C20.311543,25.3868881 20.3362547,25.1351869 20.3544731,24.8830227 C20.3777497,24.5608322 20.3898335,24.2380399 20.3936995,23.9150507 C20.3940467,23.8737063 20.3943129,23.8323618 20.3945097,23.7910289 C20.3952273,23.0185403 20.3943939,22.2460633 20.3944055,21.4735746 C20.3944402,20.1018923 20.3953083,18.7302099 20.3964658,17.3585276 C20.3973225,16.5121591 20.3982757,15.6657907 20.3993126,14.8194197 L22.6116006,14.8194197 C22.7992943,14.8198364 22.9868954,14.8250103 23.1741839,14.8376266 C23.3177089,14.8472914 23.4609793,14.8610189 23.6036362,14.8795614 C23.7100646,14.893393 23.8161574,14.9098868 23.9217061,14.9294131 C24.0044298,14.9447148 24.0868177,14.9618567 24.1687196,14.9810706 C24.6315877,15.0896634 25.0866546,15.2645788 25.4723665,15.5470915 C25.5218595,15.5833547 25.5701139,15.6213078 25.6169332,15.6609624 C25.6901194,15.7229444 25.7597637,15.7890932 25.8253107,15.8590964 C25.9285561,15.9693676 26.0214306,16.0891878 26.1032052,16.2161727 C26.2620202,16.4628158 26.3781945,16.7349693 26.46152,17.0157227 C26.5682378,17.3752528 26.6227773,17.7490776 26.6456024,18.1228561 C26.6507531,18.2071654 26.653994,18.2915327 26.6562626,18.3759578 C26.656876,18.4052068 26.6573969,18.4344442 26.6578251,18.4636817 C26.6580735,18.4915547 26.6582385,18.5194277 26.6583286,18.5473008 L26.6583286,18.5473008 C26.6583267,18.5478897 26.6583248,18.5484786 26.6583229,18.5490675 L28.0317077,18.5531533 L26.6583576,18.5531533 L26.6583576,28.0402719 L29.4362609,28.0402719 L29.4362609,18.5531533 L28.0453388,18.5531533 L28.0453377,18.5531533 C28.5089768,18.5517914 28.9726145,18.5504294 29.4362493,18.5490675 C29.4362483,18.5487043 29.4362472,18.5483412 29.4362461,18.547978 C29.4364053,18.5051953 29.4367703,18.4624387 29.4374068,18.4196519 C29.4391777,18.3343818 29.4419325,18.2491697 29.446597,18.1639922 C29.4672577,17.7863594 29.5197137,17.4084719 29.6246375,17.0445319 C29.7085301,16.7535581 29.8271235,16.4712537 29.9913786,16.2161958 C30.0731647,16.0891878 30.1660393,15.969356 30.2692962,15.8590732 C30.3348432,15.7890701 30.4044875,15.7229328 30.4776506,15.6609508 C30.5244582,15.6213078 30.572678,15.5833663 30.6221594,15.5471262 C31.007825,15.2646714 31.4627992,15.0896634 31.9256211,14.9811169 C32.0075229,14.9619146 32.0899109,14.9447495 32.1726346,14.9294479 C32.2781602,14.9099331 32.3842414,14.8934277 32.4906582,14.8795961 C32.6332804,14.8610651 32.776516,14.8473261 32.9200063,14.8376729 C33.0929539,14.8260173 33.2661678,14.8207393 33.4394858,14.8195586 C33.8883603,14.8185401 34.3372463,14.819466 34.7861207,14.819466 L34.7861207,12.0415627 L33.4792793,12.0415627 C33.250762,12.042072 33.0223489,12.0481024 32.7942367,12.0621076 C31.8450387,12.120432 30.8947875,12.3088549 30.0245514,12.7009212 C29.8564419,12.7766654 29.691666,12.8598636 29.5312305,12.9507358 C29.3411061,13.0584258 29.1570585,13.1768687 28.9807658,13.3059833 C28.7622027,13.46606 28.5556424,13.6425263 28.3639323,13.8339585 C28.2532573,13.9444832 28.1476043,14.0599734 28.0472859,14.179922 C27.9563533,14.0711849 27.8610336,13.9661099 27.761544,13.8650826 C27.5611877,13.6616359 27.3441756,13.4747293 27.1138295,13.306018 C26.9375021,13.1768687 26.7534082,13.0583911 26.5632375,12.9506895 C26.402802,12.8598289 26.2380492,12.7766307 26.0699514,12.7008981 C25.2559562,12.3341917 24.3711362,12.1455373 23.483897,12.0750133 C23.2121139,12.0534151 22.9397057,12.0434841 22.6671008,12.0416322 C21.9124419,12.0399486 21.1577768,12.0406526 20.4031145,12.0411619 L20.4031145,12.0411643 C20.4052191,10.6554011 20.4074566,9.26963216 20.4096724,7.88386325 C20.4112391,6.90699074 20.4129955,5.93011824 20.4143699,4.95324573 C20.5758488,4.9517845 20.7373235,4.94985557 20.8987917,4.94730692 C21.3950063,4.93947092 21.8912093,4.92587077 22.3868798,4.90077704 C22.7245455,4.88369294 23.0619566,4.86127294 23.3987195,4.83120214 C23.6500619,4.80875899 23.9010223,4.78204482 24.1513114,4.74990217 C24.3361693,4.72616267 24.5206684,4.69946007 24.7045887,4.66927352 C24.8410879,4.6468651 24.9772747,4.62252373 25.1130447,4.59602947 C26.041501,4.4148523 26.9588341,4.13119365 27.7867651,3.66660089 C27.9178242,3.59304433 28.046418,3.51508942 28.1720602,3.43262041 C28.3365931,3.32461785 28.4960448,3.20887187 28.6493388,3.08541722 C28.86458,2.91207605 29.0675753,2.72353744 29.2557666,2.52112088 C29.4371637,2.3260079 29.6047176,2.11810498 29.7570972,1.89957659 C29.8382351,1.78321716 29.9146043,1.66376732 29.9874548,1.54206043 L27.6040137,0.115201966 C27.5642203,0.181686452 27.5227948,0.247071351 27.4784641,0.310639039 C27.4002777,0.422773736 27.314371,0.529503097 27.2212881,0.629623363 C27.1565051,0.699302438 27.088296,0.765775349 27.0170891,0.828856904 C26.6224647,1.17844446 26.1424778,1.41715895 25.6473049,1.5890996 C25.5682273,1.61655454 25.4885825,1.64236589 25.4084863,1.66670727 C25.3036436,1.69856056 25.1980485,1.72790216 25.0918979,1.75506774 C24.9460232,1.79240739 24.7991185,1.82563806 24.6515423,1.85552367 C24.4577141,1.89478471 24.2627285,1.92829317 24.0671178,1.9573454 C23.8449434,1.99034458 23.6219356,2.01761433 23.3985112,2.04061306 C23.0742257,2.07398262 22.7490374,2.0983703 22.4235829,2.1169128 C21.9966307,2.14123103 21.5691577,2.15550251 21.1416268,2.16449597 C20.5500607,2.17693866 19.9583441,2.17897579 19.3666739,2.17980916 C18.3954378,2.18041104 17.4242018,2.17985546 16.4529658,2.17953137 C14.9673663,2.17876745 13.4817783,2.17682292 11.9961787,2.1759664 C11.1185117,2.17559601 10.2408332,2.17535294 9.36316621,2.17527192 C8.94247591,2.1752372 8.52177402,2.17423021 8.10108371,2.17534137 C7.95597299,2.17647568 7.81096643,2.18027215 7.66605248,2.18793453 C7.3953921,2.20224073 7.12535675,2.22872341 6.85715018,2.26784555 C6.09933815,2.37834823 5.3559828,2.59045272 4.65819663,2.90684433 C4.26379223,3.08567186 3.88433064,3.29747542 3.52579592,3.54040306 C3.16591854,3.7842451 2.82728055,4.0593617 2.51513682,4.36193324 C2.17590852,4.69075598 1.86818628,5.05186026 1.59644946,5.43831291 C1.34584786,5.79470633 1.12590737,6.17246646 0.937889609,6.56545876 C0.616694538,7.23679697 0.389577792,7.95125055 0.249397845,8.68172338 C0.195738013,8.96133092 0.154694491,9.24333441 0.125491783,9.52653008 C0.116162657,9.61689296 0.108048865,9.70737159 0.101115681,9.79795438 C0.0988123361,9.82795574 0.0905364991,9.94161828 0.0901429628,9.9533665 C0.0897494265,9.96496425 0.0905133499,10.0751776 0.0908374386,10.1048664 C0.0919717492,10.2100795 0.0948191001,10.3152694 0.0993794914,10.4203899 C0.115144093,10.7830799 0.151407306,11.1448903 0.208782584,11.5033671 C0.349147724,12.3803049 0.616520919,13.237427 1.01119153,14.0334699 C1.28019675,14.5760291 1.60790832,15.089594 1.98990475,15.5596268 C2.43242475,16.1041306 2.94756377,16.5894071 3.52021696,16.9950389 C3.92473756,17.2815681 4.35740758,17.5281533 4.81017109,17.7299795 C5.44785038,18.0142401 6.12432771,18.2087859 6.81469456,18.311904 C7.07612998,18.3509451 7.33948679,18.3770111 7.60348021,18.3904955 C7.74684317,18.3978106 7.89029872,18.4009821 8.0338353,18.4014219 C8.06969341,18.4013177 8.10556308,18.4010978 8.14142118,18.4007622 C8.23033724,18.3994079 8.319207,18.3972319 8.4080536,18.3933891 C8.60031924,18.385067 8.79230708,18.3701821 8.98350785,18.3484103 C9.48684079,18.2910813 9.98488413,18.1855325 10.46648,18.0279907 C10.9903578,17.8566288 11.4939454,17.6237247 11.9620452,17.3325194 C12.3251056,17.1066759 12.6664174,16.8461896 12.9805403,16.5561418 C13.2343944,16.3217562 13.4704352,16.0682146 13.687019,15.7990474 C13.8642377,15.5788175 14.0284234,15.3481473 14.1792404,15.1090856 C14.4838143,14.6262976 14.7334668,14.1096192 14.9300497,13.5739121 C15.108993,13.0862859 15.2441264,12.5829182 15.3390729,12.0723512 C15.4215419,11.6288589 15.4737317,11.1798687 15.4983046,10.7294895 C15.5094162,10.5258345 15.5144627,10.3219827 15.5149257,10.1180383 L12.7370224,10.1118227 C12.7366173,10.2926874 12.7315592,10.4734479 12.7200309,10.6539653 C12.7105166,10.8029304 12.696928,10.9516524 12.6790105,11.0998535 C12.6630491,11.2318271 12.6436617,11.3633955 12.620663,11.4943273 C12.4854717,12.2638181 12.2241867,13.0193152 11.7975934,13.6772269 C11.6295765,13.936359 11.4361418,14.1791941 11.2179491,14.3978961 C10.9931473,14.6232303 10.7422332,14.8223365 10.4707278,14.9885593 C10.1375415,15.1925616 9.77478204,15.3459366 9.39820252,15.449182 C9.04773529,15.5452743 8.68623747,15.598448 8.3234896,15.6164118 C7.76766587,15.6439478 7.20692293,15.5927996 6.66863472,15.4494829 C6.33860823,15.3616202 6.01778354,15.2393577 5.7136147,15.0839803 C5.3984037,14.9229777 5.10150371,14.7266494 4.82936178,14.5003776 C4.38959653,14.1347129 4.01636207,13.6920887 3.72103622,13.2027726 C3.48467138,12.8111345 3.29791525,12.390178 3.16081415,11.9539199 C3.03682706,11.559365 2.95331634,11.152379 2.90831431,10.7413304 C2.88680871,10.5448747 2.87462066,10.3476667 2.86980562,10.1501231 C2.86914587,10.1150173 2.86862502,10.0799231 2.86834722,10.044829 C2.88176218,9.86350133 2.90083712,9.68267139 2.92723878,9.50276743 C2.98484555,9.11012237 3.07571771,8.72196825 3.20534162,8.34674296 C3.33569473,7.96938795 3.50541305,7.60535529 3.71648741,7.26630062 C3.9486391,6.89341339 4.23065416,6.5518586 4.55555311,6.25609292 C4.78661679,6.04574777 5.03876939,5.85880645 5.30672131,5.69807002 C5.65849647,5.48706511 6.03688163,5.32161782 6.42904055,5.20169342 C6.79345517,5.09026477 7.16946754,5.01800456 7.54868606,4.98159088 C7.73717838,4.96348821 7.92629572,4.95470309 8.11562141,4.95322154 C8.53138094,4.95212195 8.94714047,4.95314052 9.3629,4.95317524 C10.2401966,4.95325626 11.1174932,4.95349933 11.9948014,4.95386972 C13.2826605,4.95461049 14.5705196,4.95623094 15.8583787,4.95713375 C16.4510179,4.9574327 17.0436533,4.95761344 17.6362892,4.95772413 Z M77.7541961,20.0091497 L77.7453539,20.0091219 C77.7450993,20.0877481 77.7439997,20.1663396 77.7411176,20.2449196 C77.7350988,20.4095335 77.7226908,20.5739275 77.7037201,20.7375576 C77.648625,21.2127874 77.5384348,21.6815354 77.3744228,22.1310002 C77.1676889,22.6975651 76.8758817,23.2327745 76.509893,23.7122175 C76.2505294,24.0519898 75.9541155,24.3635664 75.6266818,24.638382 C75.2420347,24.9612207 74.8145964,25.2330733 74.3575851,25.4414507 C73.961132,25.6222228 73.5429186,25.7548677 73.1145312,25.8346166 C72.6024826,25.9299335 72.0764287,25.950027 71.5585118,25.8952212 C70.9741683,25.8333782 70.4013993,25.6742275 69.8683428,25.4271561 C69.2452475,25.1383468 68.6790414,24.7313723 68.2008485,24.2389195 C67.6607199,23.6826791 67.2339182,23.0191769 66.9466714,22.2992717 C66.7979147,21.9264539 66.6865671,21.5388669 66.6139481,21.1441153 C66.5453917,20.7713901 66.5115129,20.3924262 66.5115129,20.0134855 C66.5115129,19.5604558 66.5600336,19.1074608 66.6580241,18.6651144 C66.7803445,18.1130292 66.9796012,17.5782713 67.249868,17.0815127 C67.5009326,16.6200335 67.8129953,16.1917619 68.1767733,15.8126591 C68.4943224,15.4817182 68.8512135,15.1884526 69.2387658,14.9430596 C69.6628358,14.6745405 70.1234006,14.4638597 70.6047881,14.3213996 C71.1448357,14.1615775 71.7094098,14.0885881 72.2723404,14.1034152 C72.5769953,14.1114479 72.8809211,14.1451763 73.1798235,14.2046813 C73.5052317,14.2694528 73.8244823,14.3647348 74.1322971,14.4885599 C74.5647472,14.6625261 74.9741638,14.8926407 75.3490998,15.1694703 C75.477763,15.2644746 75.6023867,15.3649305 75.7226004,15.470433 C75.791585,15.5309797 75.8588798,15.5933436 75.925098,15.6569229 C75.9498098,15.6809286 75.9743595,15.7050848 75.9987935,15.7293914 C76.024084,15.7548787 76.0492009,15.7805164 76.074202,15.8062931 L78.0685167,13.8725251 C77.9747508,13.7758193 77.8792604,13.6808845 77.7812699,13.5884729 C77.6081486,13.4251901 77.4282099,13.2691298 77.2420094,13.1209286 C76.6676432,12.6637899 76.0335404,12.2818514 75.3595285,11.9907965 C74.8658835,11.7776272 74.3512653,11.6132679 73.8253041,11.5014457 C73.3563708,11.4017421 72.8786756,11.343846 72.3995452,11.3280698 C71.9147084,11.3121085 71.428448,11.3389847 70.9484148,11.4089763 C70.4969129,11.4748241 70.0510363,11.5788451 69.6169889,11.7195227 C68.8155406,11.9792798 68.0559461,12.3642278 67.3701281,12.8533239 C66.7030724,13.3290399 66.1065293,13.902295 65.6017611,14.5474977 C65.0797815,15.2147038 64.6563943,15.9582096 64.3472137,16.7468448 C64.1073764,17.3586086 63.9362807,17.9970286 63.8370286,18.6465719 C63.812301,18.8084028 63.7920058,18.970906 63.77614,19.1338402 C63.6693643,18.7968367 63.5380536,18.4676752 63.3810705,18.1507856 C63.2011318,17.78754 62.9878235,17.4410197 62.7444792,17.1168037 C62.5637419,16.8760173 62.3666149,16.6476389 62.1558068,16.4327103 C61.9935078,16.2672282 61.8231297,16.1097211 61.6461194,15.9600963 C61.0300383,15.4393783 60.3365347,15.018063 59.6154373,14.6598524 C59.1567708,14.4320064 58.6862287,14.2288954 58.2112998,14.0375441 C57.971694,13.941012 57.7308151,13.847686 57.4896468,13.7551355 C57.1794823,13.6366695 56.8688201,13.5194999 56.5587367,13.4008371 C56.2836779,13.2950106 56.0090938,13.1879803 55.7368014,13.075209 C55.5323014,12.9905176 55.3290515,12.9027475 55.1281396,12.8098498 C54.9863276,12.7442797 54.8456847,12.6761516 54.7068011,12.6045627 C54.3773649,12.4347286 54.0561004,12.2455419 53.7607746,12.0208673 C53.5047676,11.8261016 53.2683449,11.6031749 53.0757205,11.3447257 C53.0110069,11.2579046 52.9518144,11.1672871 52.8976106,11.0735676 C52.8856309,11.0525134 52.8738711,11.031355 52.8623196,11.0100578 C52.8500853,10.9871401 52.8381519,10.9640835 52.8263921,10.9409111 L50.3491736,12.1979471 C50.3989791,12.2960997 50.4512037,12.3929328 50.5066229,12.4880297 C50.5692025,12.5954058 50.6354655,12.7006205 50.7052079,12.803476 L50.7052079,12.803476 C50.711687,12.8253043 50.718051,12.8471675 50.7242716,12.869077 C50.7614029,12.9998121 50.7943326,13.1317393 50.8233502,13.2645115 C50.9333088,13.767775 50.9868182,14.2825205 50.9977446,14.7972312 C51.0113332,15.4378158 50.9592475,16.0791873 50.8594513,16.7117622 C50.732015,17.5195649 50.5272141,18.3149828 50.261253,19.0880617 C50.1024727,19.5495872 49.9215964,20.003624 49.7182423,20.4473361 C49.538975,20.8384881 49.3424152,21.2220008 49.1250442,21.5933949 C49.0388135,21.7407279 48.9492492,21.886128 48.8558307,22.0290048 C48.8087684,22.1009757 48.7604791,22.1721016 48.7120047,22.2431117 C48.661389,22.3172355 48.6104261,22.3911393 48.5590001,22.4647074 C48.1749666,23.0140725 47.7623785,23.546504 47.2850768,24.0185971 C47.0298338,24.2710506 46.7567312,24.5056677 46.4650976,24.7152142 C46.1674337,24.9291128 45.8508222,25.1164013 45.5194299,25.2731098 C45.1093419,25.467019 44.6778178,25.6135766 44.2362816,25.7168798 C43.8010073,25.8187247 43.3565659,25.8789821 42.9105736,25.9067148 C42.7675694,25.9156157 42.6243569,25.9211599 42.4810981,25.9236484 C42.3735123,25.9255235 42.2658569,25.9261254 42.158271,25.9232896 C42.0159614,25.9195279 41.8738022,25.9101872 41.7322448,25.8952097 C41.3980284,25.8598377 41.0672264,25.7929018 40.7455799,25.6954437 C40.4179609,25.5961799 40.1000299,25.4653523 39.7970416,25.3060395 C39.259772,25.0235383 38.770699,24.651797 38.3505642,24.2139647 C37.9540185,23.8007284 37.6190728,23.3290173 37.3574175,22.819654 C37.1094549,22.3369354 36.9274675,21.8207778 36.816525,21.2895964 C36.589061,20.2005194 36.6575711,19.0499697 37.0201916,17.9977347 C37.2284533,17.3934134 37.5329115,16.8225658 37.9208226,16.3144063 C38.2635464,15.8654508 38.671007,15.4658147 39.1289675,15.134978 C39.6470696,14.7606902 40.229214,14.4758047 40.8446121,14.3022783 C41.2375581,14.1914863 41.6430278,14.1261708 42.0508356,14.1073158 C42.3084167,14.0954171 42.566889,14.1015864 42.8233242,14.1291223 C42.9208518,14.1395974 43.0180668,14.1531281 43.1146916,14.1700154 C43.1844748,14.182215 43.2539456,14.1961624 43.322988,14.2119965 C43.7221496,14.3035515 44.1134983,14.4593803 44.4385709,14.7125862 C44.4886657,14.7516158 44.5370475,14.792856 44.5834269,14.8362261 C44.728364,14.9717299 44.8527447,15.1281258 44.9544275,15.2984113 C45.0641315,15.4821117 45.1476307,15.680674 45.2105386,15.884954 C45.2382598,15.9749581 45.2620456,16.0661659 45.2824169,16.1581145 C45.3027766,16.2499705 45.3197797,16.3423474 45.3295255,16.4359743 C45.3554757,16.6851869 45.3384495,16.9385664 45.284836,17.1831261 C45.2221132,17.4692849 45.1083696,17.7435797 44.9518348,17.991114 C44.8426169,18.1638186 44.7128309,18.3232124 44.567454,18.4667374 C44.5147896,18.5187305 44.4601112,18.5686517 44.4036503,18.6164895 C43.9801821,18.9752673 43.4647768,19.2111576 42.9337343,19.3615 C42.8337067,19.3898231 42.7328456,19.415183 42.6313827,19.4378576 C42.5088309,19.4652431 42.3854109,19.488728 42.2614354,19.5086826 C42.1123546,19.5326999 41.9624636,19.5516591 41.8121674,19.5661852 C41.614728,19.5852717 41.4165709,19.5967421 41.2182749,19.6017771 C40.9807178,19.607819 40.7429524,19.6046244 40.5055806,19.5938022 C40.3057683,19.584693 40.1062339,19.5701784 39.9071508,19.5510109 C39.8017525,19.5408484 39.6965278,19.5291465 39.5913726,19.5167154 C39.5482225,19.5114026 39.5050724,19.5059973 39.4619455,19.5004878 C39.4171286,19.49455 39.3723349,19.4884965 39.3275528,19.4823504 L38.9499895,22.2344771 C39.0528182,22.2485865 39.1557048,22.2622098 39.2587534,22.2746409 C39.4853956,22.3019686 39.712605,22.3246085 39.9402194,22.3420051 C40.2049304,22.3622259 40.4702086,22.3753515 40.7356489,22.3803865 C40.9425795,22.3843218 41.1496259,22.3833264 41.3564987,22.3768909 C41.5115173,22.3720643 41.6664433,22.364182 41.8211377,22.353001 C42.7310631,22.2872573 43.6381759,22.1069482 44.4849734,21.762002 C44.6015528,21.7145115 44.716882,21.6639305 44.8307298,21.6102012 C44.973433,21.542837 45.1137981,21.4704958 45.2513275,21.3930849 C45.4436047,21.2848624 45.6303377,21.1667089 45.8100333,21.038636 C46.0744665,20.8501784 46.3235982,20.6401689 46.5527752,20.4100775 C46.8766787,20.0848545 47.1601869,19.7195139 47.3924891,19.3235469 C47.7153162,18.7732906 47.9381735,18.1652423 48.0454005,17.5362786 C48.1256125,17.0657481 48.1415507,16.5839324 48.0883191,16.1094665 C48.0690706,15.9379309 48.0399605,15.7679001 48.0037204,15.5991656 C47.9769252,15.4743568 47.9465072,15.3503234 47.9122927,15.2273433 C47.7704575,14.717679 47.561918,14.2260017 47.2803081,13.7775671 C47.124896,13.5301022 46.9476773,13.2963185 46.7507008,13.0804407 C46.5429715,12.8527684 46.3134357,12.6452243 46.0665727,12.4607483 C45.9282331,12.357364 45.7845113,12.2612254 45.6363565,12.172483 C45.5293493,12.1083944 45.4200388,12.0481602 45.3087838,11.9917804 C44.5739242,11.619414 43.7601258,11.4182822 42.9414893,11.3500847 C42.7907186,11.3375263 42.6395775,11.3294819 42.4883207,11.3258475 C42.2997589,11.3212987 42.1110004,11.3236599 41.9225891,11.332364 C41.6370091,11.345559 41.3521235,11.37372 41.0695066,11.4168238 C40.5673195,11.4934245 40.0724476,11.6173306 39.5933635,11.7862618 C39.1224394,11.9523226 38.6669443,12.1618112 38.2339386,12.4104799 C37.4641584,12.8525716 36.7668237,13.4182916 36.1716695,14.0766663 C35.6180449,14.6891014 35.1531744,15.3809729 34.7935053,16.1240157 C34.4632936,16.8061994 34.2219286,17.5308733 34.0759498,18.2745528 C33.8340522,19.5068422 33.852641,20.7902104 34.131612,22.0147102 C34.326262,22.8691007 34.6479663,23.6940338 35.0848842,24.4536978 C35.5204248,25.2109773 36.0697436,25.902548 36.7112309,26.4957229 C37.4147002,27.1462153 38.2281281,27.6769569 39.1099041,28.0524368 C39.7691584,28.3331555 40.465139,28.526486 41.174847,28.6252404 C41.4228559,28.6597559 41.672462,28.6827893 41.9225891,28.6943408 C42.0488795,28.700186 42.1752394,28.7026861 42.3016572,28.7031028 C42.3587546,28.7029754 42.4158406,28.7026166 42.4729265,28.7019916 C42.7486218,28.6978132 43.0240625,28.6860187 43.2989129,28.6638765 C43.8109383,28.6226246 44.3204521,28.547355 44.8212965,28.4328128 C45.325729,28.3174603 45.821087,28.1620945 46.2994767,27.9646666 C46.7665233,27.7719264 47.2168793,27.5391265 47.6440282,27.2692764 C48.006533,27.040273 48.3521042,26.7848216 48.6789014,26.5072859 C48.9929781,26.2405609 49.2895887,25.9535804 49.5696014,25.6513676 C49.8138369,25.3877677 50.0454099,25.1126048 50.266612,24.8294439 C50.4636464,24.5772103 50.6523818,24.3185991 50.8357581,24.0562955 C50.8930177,23.9743821 50.9497563,23.8921099 51.006113,23.8095714 C51.0650509,23.7232596 51.1236299,23.636728 51.18082,23.5492587 C51.299367,23.3679658 51.4130875,23.1835246 51.5225021,22.9965833 C51.7865534,22.5454286 52.0258119,22.079852 52.2435764,21.6046917 C52.5050697,21.0341103 52.7354968,20.4492228 52.9347882,19.8540802 C53.1020874,19.3544742 53.2474065,18.8474374 53.3686041,18.3346712 C53.4811786,17.8583881 53.5729652,17.3770816 53.6410354,16.8923954 C53.7177718,16.3460153 53.7645342,15.7950004 53.7753411,15.24328 C53.8178875,15.2636722 53.860523,15.2838474 53.9032347,15.3038166 C54.0208905,15.3588307 54.1392639,15.4123285 54.2581697,15.4645762 C54.4156884,15.5337923 54.5741678,15.6008092 54.7332954,15.6662404 C54.9305265,15.7473205 55.1287878,15.8258078 55.3274773,15.9032187 C55.4453762,15.9488921 55.5633676,15.9942877 55.6814517,16.0394749 C56.0672214,16.1864954 56.4537435,16.3315714 56.8384021,16.4815088 C57.2213476,16.6307748 57.6022098,16.7860711 57.9763702,16.9562872 C58.2904932,17.0991987 58.6000558,17.2528515 58.899479,17.4246185 C59.1801977,17.5856443 59.4522239,17.7627935 59.7068651,17.9627563 C59.8882621,18.1052048 60.0606542,18.2593437 60.2195966,18.4265504 C60.3633183,18.5777493 60.4958128,18.7396548 60.6141862,18.9114565 C60.7358352,19.0880154 60.8423215,19.2748757 60.9328464,19.4692248 C61.0210795,19.658701 61.0940921,19.8551103 61.1533425,20.0555129 C61.2838808,20.4970606 61.348004,20.9565258 61.3692434,21.4158058 C61.373283,21.5032288 61.3756558,21.5907327 61.3762692,21.6782482 C61.3805634,22.2986698 61.2948535,22.9260708 61.0662089,23.5055415 C61.0310684,23.5945849 60.9926292,23.6823087 60.9508217,23.7684122 C60.8925205,23.888487 60.8276565,24.0053789 60.7563569,24.1182312 C60.6238278,24.3279976 60.468925,24.5233884 60.2951903,24.700526 C60.1224741,24.8766335 59.9314354,25.0344763 59.7273752,25.1729779 C59.180464,25.5441637 58.5460603,25.7751927 57.8973388,25.8898159 C57.7834101,25.9099441 57.6688447,25.9264958 57.5538974,25.9395867 C57.4152453,25.9553628 57.2760145,25.9661041 57.1366216,25.9723544 C56.7596601,25.9892301 56.3801522,25.9732919 56.0071955,25.9142846 C55.936197,25.9030572 55.865453,25.890221 55.7950563,25.8756602 C55.3509506,25.7838389 54.9148082,25.6226858 54.5437382,25.3578474 C54.4821498,25.3138987 54.4225174,25.2672183 54.3651885,25.2178411 C54.275439,25.1405459 54.1913843,25.056688 54.113904,24.967089 C53.938815,24.7646377 53.7989476,24.5337477 53.6909335,24.2892112 C53.6247846,24.139459 53.5709396,23.984834 53.525544,23.8276046 C53.5182636,23.8017007 53.5111452,23.7757736 53.5041889,23.7497771 C53.4968506,23.7215813 53.4897322,23.6933509 53.4827643,23.6650626 L50.7856748,24.3302431 C50.8354456,24.5320462 50.8929251,24.7317775 50.9606017,24.9283257 C51.0850286,25.2896962 51.2421307,25.6400361 51.433968,25.9707223 C51.6336067,26.3148698 51.8707586,26.6371413 52.1420556,26.928254 C52.3389742,27.1395483 52.5536135,27.3342446 52.782779,27.5100396 C52.9644307,27.6493862 53.1551569,27.7768572 53.3530131,27.8920129 C53.6899843,28.0881328 54.0473616,28.2482905 54.4161977,28.37428 C54.7826032,28.4994477 55.1601781,28.5910375 55.5422671,28.6531237 C55.850325,28.7031838 56.1614155,28.7341227 56.4731657,28.7480006 C56.6068986,28.75395 56.7406778,28.7563112 56.8745264,28.756508 C56.9118545,28.7563228 56.9491941,28.7560218 56.9865222,28.7556051 C57.0599515,28.7543319 57.133346,28.7525957 57.2067405,28.7497484 C57.374711,28.7432319 57.5425311,28.7320971 57.7098767,28.7161936 C58.0670803,28.6822338 58.4222121,28.6259002 58.7721237,28.5463827 C59.2949367,28.4275695 59.8063256,28.2568905 60.2931994,28.0320539 C60.8521252,27.773952 61.3782832,27.4440528 61.8480845,27.0457478 C62.1273217,26.8090125 62.3863727,26.5484799 62.6207352,26.2672288 C62.8433957,26.0000292 63.0436594,25.7142756 63.2190955,25.4139611 C63.5343529,24.8742607 63.7677662,24.2888176 63.9206782,23.6831189 C64.0109994,23.3253556 64.0732363,22.9614899 64.1106127,22.5949379 L64.1106127,22.5949379 C64.3744758,23.4734486 64.7754023,24.3101203 65.2969904,25.0648828 C65.65659,25.5852304 66.0730324,26.0662938 66.5374631,26.4957345 C67.0262931,26.9477457 67.5681694,27.3423468 68.1496425,27.6667828 C68.5254928,27.8765029 68.9177211,28.0568699 69.3217672,28.2051867 C69.7647502,28.3678098 70.2218542,28.4917969 70.6863312,28.575134 C71.0019473,28.6317685 71.3209316,28.6696522 71.6410271,28.6886577 C71.8034303,28.6983109 71.9659723,28.7025819 72.1286533,28.7031143 C72.1649397,28.7029986 72.201226,28.7027555 72.2375008,28.7023967 C72.3278753,28.7009152 72.4181918,28.6985308 72.5084853,28.6943639 C72.6696731,28.6869099 72.8306526,28.6746871 72.9911228,28.6577072 C73.5337284,28.600274 74.0703961,28.488012 74.5905122,28.323074 C75.2960881,28.0993371 75.9701927,27.7787902 76.5905911,27.3752071 C77.2055031,26.9751774 77.7670563,26.494114 78.2589651,25.950027 C78.5822148,25.5924879 78.8750573,25.2079005 79.1344296,24.8019114 C79.5536528,25.4616534 80.0611945,26.0650538 80.6415843,26.5889216 C81.303686,27.1865412 82.059704,27.6796074 82.8760719,28.0393922 C83.5651771,28.3430865 84.2958467,28.5511167 85.0417485,28.654883 C85.2904171,28.6894795 85.5406715,28.7125708 85.7914699,28.7241685 C85.9183737,28.7300253 86.0453355,28.7325254 86.1723783,28.7329421 C86.2087688,28.7328263 86.2451593,28.7325833 86.2815383,28.7322245 C86.4082338,28.730141 86.5348252,28.7259626 86.6613124,28.7184507 C86.9291254,28.7025472 87.1961514,28.6734602 87.4610939,28.6312824 C88.1862077,28.5158721 88.8949434,28.3015337 89.5629597,27.9969597 C90.3899647,27.6199288 91.1526149,27.1056347 91.8159551,26.4847618 C92.4052178,25.9333017 92.9157733,25.2986433 93.3304911,24.6063898 C93.772062,23.8692732 94.1042529,23.0674545 94.3151421,22.2345234 C94.6594864,20.8746008 94.6804364,19.4340843 94.3770662,18.0645085 C94.183076,17.1890639 93.8564408,16.3435974 93.4093141,15.5662822 C92.9554742,14.7772998 92.3784805,14.0594896 91.7026398,13.4495314 C91.3471839,13.1286257 90.9646435,12.8376172 90.5599955,12.5813904 C90.1235175,12.3050469 89.6614596,12.0692492 89.1812295,11.8789512 C88.6932445,11.6856207 88.1866938,11.5394104 87.6707099,11.443376 C87.1589854,11.3481286 86.6382558,11.3022701 86.1177693,11.3057077 C85.6159642,11.3090065 85.1145064,11.3582101 84.6217526,11.4532491 C84.0897147,11.5558695 83.5681286,11.7118835 83.0669601,11.9178187 C82.6211298,12.1010099 82.1915618,12.3235431 81.7843443,12.5813904 C81.3507599,12.8559398 80.942547,13.1703753 80.5657707,13.5187938 C79.9733828,14.0666079 79.4591351,14.6980138 79.0404819,15.3876746 C78.5948946,16.1217008 78.2580623,16.9209036 78.0423002,17.752006 C77.8511718,18.488201 77.7550814,19.24862 77.7541961,20.0091497 L77.7541961,20.0091497 Z M86.1723783,25.9550272 C86.2566182,25.9547494 86.3408002,25.9530942 86.4249591,25.9492052 C86.6022704,25.9410103 86.7791997,25.9241346 86.9548442,25.8985084 C87.434646,25.8285168 87.9043431,25.6929667 88.348009,25.4974023 C88.8831952,25.261512 89.3791551,24.9391942 89.8155175,24.5499868 C90.2684314,24.1459987 90.6567592,23.6707573 90.9655694,23.1483726 C91.2718333,22.630201 91.4991584,22.0661593 91.6399055,21.4810055 C91.754957,21.0027432 91.8120197,20.5109501 91.8120197,20.0191223 C91.8120197,19.4537148 91.7364376,18.8884694 91.5844631,18.3437573 C91.4234605,17.7667405 91.1771531,17.2137641 90.8542218,16.7091348 C90.5715701,16.2674829 90.2306983,15.8630549 89.8414446,15.5116733 C89.3646869,15.0814455 88.8158658,14.7314181 88.2216723,14.4872635 C87.9020398,14.3559266 87.5698488,14.2552739 87.2309446,14.1876204 C86.9063466,14.1228026 86.575834,14.0882987 86.24487,14.0839235 C85.877145,14.0790622 85.5089802,14.1112396 85.147876,14.1808955 C84.7857878,14.2507366 84.4311306,14.3581836 84.0909416,14.5004586 C83.4982759,14.7483286 82.9513646,15.1017473 82.4772923,15.5348919 C82.0899021,15.8888431 81.7511715,16.2954124 81.4709621,16.7389972 C81.1573021,17.2355359 80.9175112,17.7781067 80.7597031,18.3437573 C80.6077402,18.8884694 80.5322044,19.4537148 80.5322044,20.0191223 C80.5322044,20.5109501 80.5892209,21.0027432 80.7042492,21.4810055 C80.8505405,22.0892159 81.0905051,22.6744507 81.4151262,23.2092549 C81.7296428,23.7273918 82.1232601,24.1975982 82.5805493,24.595637 C83.0215299,24.9794738 83.521321,25.2955992 84.0594008,25.5246952 C84.4628334,25.6964738 84.8871003,25.8189794 85.3201523,25.8878945 C85.4832731,25.9138563 85.647586,25.9323062 85.8124083,25.9431864 C85.8960811,25.9487074 85.9798233,25.9520178 86.0636581,25.9539507 C86.0998981,25.9545526 86.1361266,25.9549114 86.1723783,25.9550272 Z" id="Fill-1"></path>
                </g>
            </g>
        </g>
    </g>
</svg>